<svg xmlns="http://www.w3.org/2000/svg" xmlns:xlink="http://www.w3.org/1999/xlink" width="500" zoomAndPan="magnify" viewBox="0 0 375 374.999991" height="500" preserveAspectRatio="xMidYMid meet" version="1.0"><defs><clipPath id="f9c69aac68"><path d="M 42 137 L 325 137 L 325 250 L 42 250 Z M 42 137 " clip-rule="nonzero"/></clipPath><clipPath id="7dec024500"><path d="M 61.125 105.320312 L 344.058594 179.507812 L 320.472656 269.46875 L 37.535156 195.277344 Z M 61.125 105.320312 " clip-rule="nonzero"/></clipPath><clipPath id="4ca7ff7045"><path d="M 320.6875 269.667969 L 37.75 195.480469 L 61.339844 105.519531 L 344.273438 179.710938 Z M 320.6875 269.667969 " clip-rule="nonzero"/></clipPath></defs><g clip-path="url(#f9c69aac68)"><g clip-path="url(#7dec024500)"><g clip-path="url(#4ca7ff7045)"><path fill="#517a92" d="M 50.308594 174.714844 C 52.382812 170.679688 55.148438 166.878906 57.539062 163.234375 C 62.601562 155.503906 67.921875 147.933594 73.890625 140.871094 C 82.332031 130.890625 98.035156 144.722656 91.214844 155.175781 C 89.042969 158.5 86.675781 161.707031 84.222656 164.859375 C 168.875 133.558594 276.632812 162.722656 323.695312 242.019531 C 326.621094 246.949219 319.542969 251.644531 315.761719 247.710938 C 285.605469 216.367188 249.238281 190.554688 206.65625 179.703125 C 167.367188 169.691406 127.785156 173.761719 90.292969 187.203125 C 99.519531 191.394531 108.550781 196.007812 117.261719 201.117188 C 122.03125 203.917969 119.871094 212.683594 114.011719 211.960938 C 92.597656 209.335938 71.46875 204.328125 51.035156 197.375 C 38.628906 193.15625 41.964844 178.53125 50.308594 174.714844 Z M 50.308594 174.714844 " fill-opacity="1" fill-rule="nonzero"/></g></g></g></svg>