<svg xmlns="http://www.w3.org/2000/svg" xmlns:xlink="http://www.w3.org/1999/xlink" width="500" zoomAndPan="magnify" viewBox="0 0 375 374.999991" height="500" preserveAspectRatio="xMidYMid meet" version="1.0"><defs><clipPath id="c9b482b75d"><path d="M 177 328.664062 L 185.726562 328.664062 L 185.726562 342.714844 L 177 342.714844 Z M 177 328.664062 " clip-rule="nonzero"/></clipPath><clipPath id="60f9fb7024"><path d="M 37.5 214 L 67 214 L 67 232 L 37.5 232 Z M 37.5 214 " clip-rule="nonzero"/></clipPath><clipPath id="5f219ddd8f"><path d="M 308.863281 214.367188 L 337.496094 214.367188 L 337.496094 231.675781 L 308.863281 231.675781 Z M 308.863281 214.367188 " clip-rule="nonzero"/></clipPath><clipPath id="0154c32c53"><path d="M 233 31.925781 L 253 31.925781 L 253 56 L 233 56 Z M 233 31.925781 " clip-rule="nonzero"/></clipPath></defs><path fill="#300000" d="M 199.738281 330.199219 C 200.015625 329.132812 200.679688 328.511719 201.816406 328.386719 C 205.546875 327.964844 209.109375 326.703125 212.507812 325.152344 C 215.355469 323.851562 218.371094 322.402344 219.507812 319.25 C 220.785156 315.695312 219.449219 311.898438 217.160156 309.089844 L 220.945312 308.460938 C 221.425781 309.367188 221.917969 310.304688 222.386719 311.253906 C 224.167969 314.882812 223.671875 319.328125 221.445312 322.710938 C 218.691406 326.890625 213.761719 328.25 209.359375 330.027344 C 207.917969 330.609375 206.398438 330.984375 204.824219 331.480469 C 205.054688 331.816406 205.230469 332.058594 205.386719 332.3125 C 206.199219 333.582031 206.683594 334.910156 206.421875 336.46875 C 206.140625 338.152344 204.722656 339.851562 203.320312 340.039062 C 201.847656 340.230469 200.320312 339.148438 199.59375 337.414062 C 198.578125 334.984375 199.121094 332.589844 199.738281 330.199219 " fill-opacity="1" fill-rule="nonzero"/><path fill="#300000" d="M 206.222656 339.691406 C 207.277344 337.875 207.359375 335.53125 206.628906 333.585938 C 206.199219 332.445312 205.554688 331.414062 204.699219 330.546875 C 204.523438 330.371094 204.335938 330.195312 204.148438 330.027344 C 204 329.894531 203.847656 329.753906 203.675781 329.652344 C 203.621094 329.628906 203.570312 329.601562 203.519531 329.570312 L 203.511719 329.566406 C 203.082031 329.136719 202.582031 328.835938 202.03125 328.585938 C 201.984375 328.566406 201.9375 328.550781 201.894531 328.535156 C 201.59375 328.417969 201.269531 328.402344 200.976562 328.492188 C 200.65625 328.574219 200.371094 328.773438 200.207031 329.105469 C 199.65625 330.113281 199.207031 331.191406 198.988281 332.320312 C 198.773438 333.449219 198.582031 334.585938 198.5 335.730469 C 198.410156 336.917969 198.492188 338.113281 198.808594 339.265625 C 199.109375 340.339844 199.640625 341.59375 200.695312 342.128906 C 202.765625 343.175781 205.195312 341.460938 206.222656 339.691406 " fill-opacity="1" fill-rule="nonzero"/><path fill="#300000" d="M 184.414062 330.261719 C 184.070312 329.21875 183.363281 328.640625 182.222656 328.589844 C 177.265625 328.363281 172.683594 326.699219 168.183594 324.789062 C 166.496094 324.074219 165.109375 322.914062 164.25 321.222656 C 162.296875 317.390625 163.464844 313.410156 165.640625 310.347656 L 161.820312 309.972656 C 161.40625 310.90625 160.972656 311.875 160.566406 312.855469 C 159.175781 316.234375 159.671875 320.230469 161.535156 323.332031 C 164.269531 327.890625 170.117188 329.183594 174.804688 330.726562 C 176.277344 331.210938 177.820312 331.484375 179.425781 331.875 C 179.21875 332.226562 179.058594 332.480469 178.917969 332.746094 C 178.191406 334.0625 177.796875 335.421875 178.160156 336.960938 C 178.550781 338.625 180.074219 340.226562 181.488281 340.316406 C 182.96875 340.414062 184.425781 339.234375 185.035156 337.453125 C 185.890625 334.964844 185.191406 332.609375 184.414062 330.261719 " fill-opacity="1" fill-rule="nonzero"/><g clip-path="url(#c9b482b75d)"><path fill="#300000" d="M 177.90625 339.925781 C 176.863281 338.101562 176.800781 335.753906 177.546875 333.816406 C 177.984375 332.679688 178.640625 331.65625 179.503906 330.796875 C 179.679688 330.617188 179.867188 330.449219 180.054688 330.28125 C 180.207031 330.148438 180.363281 330.007812 180.53125 329.90625 C 180.589844 329.886719 180.640625 329.855469 180.6875 329.828125 L 180.695312 329.820312 C 181.132812 329.398438 181.632812 329.097656 182.1875 328.855469 C 182.230469 328.835938 182.277344 328.820312 182.324219 328.804688 C 182.625 328.691406 182.949219 328.679688 183.242188 328.765625 C 183.5625 328.855469 183.84375 329.054688 184.007812 329.386719 C 184.546875 330.398438 184.988281 331.484375 185.195312 332.617188 C 185.40625 333.746094 185.585938 334.882812 185.660156 336.027344 C 185.742188 337.214844 185.648438 338.410156 185.320312 339.558594 C 185.015625 340.632812 184.472656 341.882812 183.414062 342.40625 C 181.335938 343.4375 178.921875 341.703125 177.90625 339.925781 " fill-opacity="1" fill-rule="nonzero"/></g><g clip-path="url(#60f9fb7024)"><path fill="#300000" d="M 61.007812 230.480469 C 62.417969 229.816406 63.675781 228.851562 64.625 227.585938 C 65.574219 226.320312 66.191406 224.808594 66.277344 223.222656 C 66.363281 221.691406 65.96875 220.046875 65.101562 218.773438 C 64.375 217.699219 62.890625 216.335938 61.964844 218.003906 C 61.703125 218.472656 61.675781 219.039062 61.773438 219.5625 C 62.027344 220.929688 62.695312 221.992188 62.441406 223.449219 C 62.226562 224.691406 61.484375 225.792969 60.375 226.410156 C 59.726562 226.769531 59.097656 227.023438 58.5 227.152344 C 57.902344 227.28125 57.335938 227.289062 56.816406 227.152344 C 55.074219 226.699219 54.132812 224.296875 54.0625 222.691406 C 53.96875 220.378906 55.304688 219.089844 57.257812 218.132812 C 58.351562 217.59375 58.910156 216.664062 58.425781 215.472656 C 58.363281 215.308594 58.277344 215.167969 58.179688 215.042969 C 57.675781 214.414062 56.753906 214.257812 55.703125 214.617188 C 55.085938 214.828125 54.519531 215.082031 54.003906 215.375 C 51.492188 216.8125 50.085938 219.640625 49.726562 222.453125 C 48.671875 220.597656 47.691406 218.765625 46.792969 216.835938 C 46.320312 215.820312 45.242188 214.148438 43.875 214.726562 C 42.726562 215.207031 42.832031 216.796875 43.078125 217.78125 C 43.6875 220.230469 45.167969 222.285156 46.503906 224.375 C 46.636719 224.582031 46.765625 224.789062 46.890625 224.996094 C 47.019531 225.203125 47.148438 225.410156 47.273438 225.617188 C 47.085938 225.546875 46.898438 225.472656 46.71875 225.394531 C 46.539062 225.3125 46.359375 225.226562 46.183594 225.140625 C 44.824219 224.484375 43.675781 223.742188 42.445312 222.859375 C 41.554688 222.21875 40.511719 221.359375 39.371094 221.257812 C 38.304688 221.164062 37.511719 222.3125 37.828125 223.308594 C 38.203125 224.488281 39.664062 225.550781 40.628906 226.21875 C 42.660156 227.636719 44.832031 228.882812 47.128906 229.808594 C 50.042969 230.984375 53.273438 231.777344 56.429688 231.613281 C 58 231.53125 59.582031 231.15625 61.007812 230.480469 " fill-opacity="1" fill-rule="nonzero"/></g><path fill="#300000" d="M 80.191406 229.550781 C 79.007812 230.082031 78.171875 231.414062 77.253906 232.300781 C 75.921875 233.59375 74.351562 234.945312 72.492188 235.347656 C 70.65625 235.746094 68.769531 235.230469 67.226562 234.207031 C 65.304688 232.933594 63.476562 231.511719 61.460938 230.046875 C 59.761719 230.660156 58.007812 230.941406 56.148438 230.976562 C 56.691406 231.152344 57.226562 231.34375 57.75 231.578125 C 59.179688 232.222656 60.296875 233.3125 61.519531 234.253906 C 62.90625 235.316406 64.332031 236.332031 65.8125 237.257812 C 68.144531 238.710938 70.871094 239.277344 73.550781 238.546875 C 76.191406 237.824219 78.722656 236.011719 80.535156 233.988281 C 80.808594 233.6875 81.066406 233.375 81.308594 233.046875 C 81.703125 232.519531 82.066406 231.9375 82.15625 231.28125 C 82.296875 230.269531 81.636719 229.308594 80.554688 229.445312 C 80.429688 229.460938 80.308594 229.5 80.191406 229.550781 " fill-opacity="1" fill-rule="nonzero"/><g clip-path="url(#5f219ddd8f)"><path fill="#300000" d="M 314.246094 230.480469 C 312.835938 229.816406 311.578125 228.851562 310.628906 227.585938 C 309.679688 226.320312 309.0625 224.808594 308.976562 223.222656 C 308.890625 221.691406 309.285156 220.046875 310.152344 218.773438 C 310.878906 217.699219 312.363281 216.335938 313.289062 218.003906 C 313.550781 218.472656 313.582031 219.039062 313.480469 219.5625 C 313.226562 220.929688 312.558594 221.992188 312.8125 223.449219 C 313.027344 224.691406 313.769531 225.792969 314.878906 226.410156 C 315.527344 226.769531 316.15625 227.023438 316.753906 227.152344 C 317.355469 227.28125 317.921875 227.289062 318.4375 227.152344 C 320.179688 226.699219 321.125 224.296875 321.191406 222.691406 C 321.285156 220.378906 319.949219 219.089844 317.996094 218.132812 C 316.902344 217.59375 316.34375 216.664062 316.828125 215.472656 C 316.890625 215.308594 316.976562 215.167969 317.078125 215.042969 C 317.578125 214.414062 318.503906 214.257812 319.550781 214.617188 C 320.167969 214.828125 320.734375 215.082031 321.25 215.375 C 323.761719 216.8125 325.167969 219.640625 325.527344 222.453125 C 326.582031 220.597656 327.5625 218.765625 328.460938 216.835938 C 328.933594 215.820312 330.011719 214.148438 331.378906 214.726562 C 332.527344 215.207031 332.421875 216.796875 332.175781 217.78125 C 331.570312 220.230469 330.085938 222.285156 328.75 224.375 C 328.617188 224.582031 328.492188 224.789062 328.363281 224.996094 C 328.234375 225.203125 328.105469 225.410156 327.980469 225.617188 C 328.171875 225.546875 328.355469 225.472656 328.535156 225.394531 C 328.71875 225.3125 328.894531 225.226562 329.074219 225.140625 C 330.429688 224.484375 331.578125 223.742188 332.808594 222.859375 C 333.699219 222.21875 334.742188 221.359375 335.882812 221.257812 C 336.953125 221.164062 337.742188 222.3125 337.425781 223.308594 C 337.050781 224.488281 335.589844 225.550781 334.625 226.21875 C 332.59375 227.636719 330.421875 228.882812 328.125 229.808594 C 325.210938 230.984375 321.980469 231.777344 318.824219 231.613281 C 317.253906 231.53125 315.671875 231.15625 314.246094 230.480469 " fill-opacity="1" fill-rule="nonzero"/></g><path fill="#300000" d="M 295.0625 229.550781 C 296.25 230.082031 297.085938 231.414062 298 232.300781 C 299.332031 233.59375 300.902344 234.945312 302.765625 235.347656 C 304.597656 235.746094 306.484375 235.230469 308.027344 234.207031 C 309.949219 232.933594 311.777344 231.511719 313.792969 230.046875 C 315.492188 230.660156 317.246094 230.941406 319.109375 230.976562 C 318.5625 231.152344 318.027344 231.34375 317.503906 231.578125 C 316.074219 232.222656 314.957031 233.3125 313.734375 234.253906 C 312.347656 235.316406 310.921875 236.332031 309.441406 237.257812 C 307.109375 238.710938 304.382812 239.277344 301.707031 238.546875 C 299.066406 237.824219 296.53125 236.011719 294.71875 233.988281 C 294.445312 233.6875 294.191406 233.375 293.945312 233.046875 C 293.550781 232.519531 293.1875 231.9375 293.097656 231.28125 C 292.957031 230.269531 293.621094 229.308594 294.699219 229.445312 C 294.828125 229.460938 294.945312 229.5 295.0625 229.550781 " fill-opacity="1" fill-rule="nonzero"/><path fill="#6bcc0e" d="M 134.023438 33.304688 L 124.507812 33.417969 C 122.050781 33.445312 120.0625 35.484375 120.09375 37.941406 L 120.269531 52.839844 C 120.296875 55.300781 122.332031 57.289062 124.792969 57.257812 L 134.304688 57.144531 C 136.761719 57.117188 138.75 55.082031 138.71875 52.621094 L 138.542969 37.722656 C 138.515625 35.265625 136.480469 33.277344 134.023438 33.304688 " fill-opacity="1" fill-rule="nonzero"/><g clip-path="url(#0154c32c53)"><path fill="#6bcc0e" d="M 247.542969 31.957031 L 238.027344 32.074219 C 235.570312 32.101562 233.582031 34.136719 233.613281 36.59375 L 233.789062 51.496094 C 233.816406 53.953125 235.851562 55.941406 238.3125 55.914062 L 247.824219 55.800781 C 250.28125 55.769531 252.269531 53.734375 252.238281 51.277344 L 252.0625 36.375 C 252.035156 33.917969 250 31.929688 247.542969 31.957031 " fill-opacity="1" fill-rule="nonzero"/></g><path fill="#559e00" d="M 286.667969 61.777344 C 286.140625 56.285156 285.304688 50.707031 283.121094 45.753906 C 279.957031 38.5625 274.527344 36.355469 267.917969 36.464844 C 241.5 36.898438 215.019531 37.289062 188.558594 37.617188 C 162.097656 37.917969 135.617188 38.15625 109.195312 38.347656 C 102.582031 38.394531 97.207031 40.730469 94.210938 47.996094 C 92.148438 53 91.445312 58.59375 91.046875 64.097656 C 90.847656 66.824219 90.984375 69.800781 93.453125 70.980469 C 94.636719 71.546875 95.949219 71.558594 97.226562 71.5625 C 97.449219 71.5625 97.667969 71.5625 97.886719 71.5625 C 128.242188 71.628906 158.597656 71.078125 188.949219 70.601562 C 219.304688 70.359375 249.664062 70.1875 280.007812 69.402344 C 280.226562 69.398438 280.449219 69.390625 280.667969 69.386719 C 281.945312 69.355469 283.253906 69.308594 284.425781 68.714844 C 286.867188 67.476562 286.929688 64.496094 286.667969 61.777344 " fill-opacity="1" fill-rule="nonzero"/><path fill="#6bcc0e" d="M 194.761719 86.277344 C 194.757812 86.015625 194.753906 85.75 194.753906 85.488281 C 192.054688 85.613281 189.355469 85.734375 186.65625 85.859375 C 183.953125 85.800781 181.253906 85.742188 178.550781 85.683594 C 178.554688 85.945312 178.558594 86.207031 178.558594 86.46875 C 141.351562 88.164062 104.144531 89.859375 66.9375 91.554688 C 70.792969 125.542969 72.574219 159.71875 76.191406 193.730469 C 78.304688 213.625 78.945312 233.851562 83.945312 253.320312 C 88.484375 271.003906 98.507812 290.785156 113.902344 301.363281 C 124.714844 308.792969 138.34375 310.238281 151.101562 310.8125 C 163.777344 311.386719 176.664062 312.105469 189.332031 311.785156 C 202.003906 311.804688 214.867188 310.78125 227.53125 309.910156 C 240.269531 309.03125 253.859375 307.261719 264.492188 299.578125 C 279.632812 288.640625 289.183594 268.625 293.304688 250.839844 C 297.84375 231.253906 298 211.019531 299.644531 191.082031 C 302.453125 156.996094 303.425781 122.78125 306.472656 88.714844 C 269.238281 87.902344 232 87.089844 194.761719 86.277344 " fill-opacity="1" fill-rule="nonzero"/><path fill="#62bf00" d="M 191.863281 85.796875 C 192.828125 85.75 193.789062 85.707031 194.753906 85.660156 C 194.753906 85.601562 194.753906 85.546875 194.753906 85.488281 C 192.941406 85.574219 191.128906 85.65625 189.316406 85.738281 C 190.164062 85.757812 191.015625 85.777344 191.863281 85.796875 " fill-opacity="1" fill-rule="nonzero"/><path fill="#62bf00" d="M 157.96875 310.734375 C 145.769531 310.152344 132.730469 308.699219 122.386719 301.261719 C 107.65625 290.675781 98.058594 270.890625 93.703125 253.207031 C 88.914062 233.730469 88.292969 213.507812 86.257812 193.609375 C 82.78125 159.597656 81.058594 125.417969 77.355469 91.433594 C 112.941406 89.757812 148.53125 88.078125 184.121094 86.402344 C 184.117188 86.203125 184.117188 86.003906 184.113281 85.804688 C 182.257812 85.761719 180.40625 85.722656 178.550781 85.683594 C 178.554688 85.945312 178.558594 86.207031 178.558594 86.46875 C 141.351562 88.164062 104.144531 89.859375 66.9375 91.554688 C 70.792969 125.542969 72.574219 159.71875 76.191406 193.730469 C 78.304688 213.625 78.945312 233.851562 83.945312 253.320312 C 88.484375 271.003906 98.507812 290.785156 113.902344 301.363281 C 124.714844 308.792969 138.34375 310.238281 151.101562 310.8125 C 163.59375 311.378906 176.285156 312.082031 188.773438 311.796875 C 178.527344 311.808594 168.179688 311.21875 157.96875 310.734375 " fill-opacity="1" fill-rule="nonzero"/><path fill="#62bf00" d="M 195.226562 311.71875 C 194.996094 311.722656 194.769531 311.722656 194.539062 311.722656 C 193.8125 311.742188 193.082031 311.753906 192.347656 311.765625 C 193.304688 311.757812 194.265625 311.742188 195.226562 311.71875 " fill-opacity="1" fill-rule="nonzero"/><path fill="#62bf00" d="M 191.617188 311.777344 C 191.742188 311.773438 191.867188 311.773438 191.992188 311.773438 C 191.867188 311.773438 191.742188 311.773438 191.617188 311.777344 " fill-opacity="1" fill-rule="nonzero"/><path fill="#62bf00" d="M 70.484375 114.515625 C 71.414062 116.449219 72.148438 118.4375 72.75 120.46875 C 73.355469 122.5 73.828125 124.566406 74.230469 126.65625 C 75.101562 135.414062 79.824219 143.449219 79.398438 152.53125 C 79.148438 153.941406 76.722656 154.105469 74.992188 154.222656 C 77.367188 153.367188 80.808594 152.785156 81.3125 149.964844 C 82.894531 142.542969 81.613281 133.925781 86.75 128.003906 C 87.554688 126.90625 88.449219 125.878906 89.421875 124.929688 C 94.285156 120.191406 101.058594 117.386719 109.261719 117.933594 C 111.132812 117.800781 113.015625 117.75 114.910156 117.75 C 118.289062 117.75 121.695312 117.90625 125.113281 118.066406 C 131.285156 118.347656 137.5 118.632812 143.675781 117.984375 C 145.464844 117.957031 147.300781 117.933594 149.152344 117.910156 C 163.96875 117.734375 179.683594 117.550781 195.207031 117.367188 C 197.183594 117.34375 199.160156 117.320312 201.128906 117.296875 C 207.261719 117.507812 213.695312 117.226562 220.21875 116.941406 C 241.316406 116.03125 263.316406 115.117188 278.9375 130.910156 C 280.507812 132.796875 281.738281 134.820312 282.6875 136.941406 C 286.5 145.425781 285.902344 155.496094 285.089844 164.859375 C 285.050781 167.457031 285.007812 170.058594 284.960938 172.664062 C 285.511719 170.820312 286.007812 168.976562 286.480469 167.136719 C 287.152344 163.675781 288.03125 160.449219 288.914062 157.21875 C 293.117188 143.609375 298.476562 130.675781 300.914062 116.9375 C 301.210938 115.515625 301.5 114.101562 301.804688 112.691406 C 302.410156 109.867188 303.070312 107.058594 303.816406 104.269531 C 304.292969 101.945312 304.699219 99.714844 305.070312 97.476562 C 305.429688 95.277344 305.753906 93.066406 306.03125 90.84375 C 303.742188 90.746094 301.445312 90.628906 299.148438 90.492188 C 283.050781 89.578125 266.917969 87.773438 250.609375 87.515625 C 245.957031 87.402344 241.308594 87.296875 236.65625 87.191406 C 222.691406 86.886719 208.726562 86.582031 194.761719 86.277344 C 194.757812 86.015625 194.753906 85.75 194.753906 85.488281 C 192.054688 85.613281 189.355469 85.734375 186.65625 85.859375 C 183.953125 85.800781 181.253906 85.742188 178.550781 85.683594 C 178.554688 85.945312 178.558594 86.207031 178.558594 86.46875 C 152.980469 87.632812 127.398438 88.800781 101.820312 89.964844 C 99.492188 90.070312 97.167969 90.179688 94.84375 90.285156 C 90.140625 90.515625 85.636719 90.824219 80.890625 90.917969 C 78.5625 91.027344 76.238281 91.132812 73.914062 91.238281 C 71.695312 91.074219 69.175781 91.5625 66.875 91.589844 C 67.3125 94.300781 67.570312 97.015625 67.890625 99.761719 C 68.144531 101.625 68.332031 103.425781 68.617188 105.210938 C 68.898438 106.996094 69.277344 108.769531 69.917969 110.585938 C 70.148438 111.730469 70.335938 113.015625 70.484375 114.515625 " fill-opacity="1" fill-rule="nonzero"/><path fill="#62bf00" d="M 194.761719 86.277344 C 194.757812 86.015625 194.753906 85.75 194.753906 85.488281 C 194.375 85.507812 194 85.523438 193.621094 85.542969 C 193.625 85.78125 193.625 86.019531 193.628906 86.257812 C 225.660156 87.078125 257.695312 87.898438 289.726562 88.71875 C 287.140625 121.3125 286.34375 154.046875 283.96875 186.660156 C 283.484375 193.285156 283.15625 199.941406 282.769531 206.597656 C 282.640625 208.816406 282.503906 211.03125 282.347656 213.230469 C 282.304688 218.816406 281.894531 224.476562 281.074219 230.085938 C 280.664062 232.886719 280.148438 235.679688 279.527344 238.441406 C 273.601562 280.59375 230.445312 303.171875 190.871094 301.800781 C 186.683594 301.972656 182.519531 302.039062 178.417969 302 C 174.324219 301.960938 170.292969 301.8125 166.363281 301.574219 C 164.839844 301.503906 163.316406 301.425781 161.789062 301.347656 C 157.460938 301.46875 153.089844 301.324219 148.757812 300.882812 C 146.589844 300.664062 144.429688 300.367188 142.289062 299.996094 C 138.355469 299.535156 134.546875 298.707031 130.882812 297.546875 C 129.046875 296.964844 127.253906 296.300781 125.496094 295.5625 C 123.492188 294.855469 121.613281 294.023438 119.851562 293.074219 C 101.445312 281.949219 93.996094 259.476562 90.179688 239.191406 C 90.4375 258.324219 92.546875 279.074219 105.601562 293.738281 C 106.898438 295.226562 108.292969 296.652344 109.808594 298 C 110.980469 298.925781 112.183594 299.800781 113.429688 300.621094 C 117.15625 303.089844 121.21875 305.085938 125.605469 306.480469 C 127.632812 307.207031 129.695312 307.828125 131.785156 308.363281 C 138.0625 309.953125 144.613281 310.707031 151.101562 310.8125 C 153.210938 310.910156 155.332031 311.007812 157.453125 311.105469 C 160.109375 311.230469 162.765625 311.351562 165.429688 311.457031 C 168.089844 311.5625 170.753906 311.660156 173.414062 311.730469 C 177.136719 311.503906 180.902344 311.378906 184.699219 311.304688 C 188.492188 311.234375 192.320312 311.210938 196.15625 311.1875 C 224.332031 310.828125 258.800781 311.335938 277.824219 286.746094 C 279.820312 284.042969 281.570312 281.0625 283.03125 277.777344 C 284.230469 275.628906 285.34375 273.425781 286.371094 271.191406 C 287.910156 267.839844 289.257812 264.421875 290.414062 261.003906 C 291.570312 257.585938 292.53125 254.171875 293.304688 250.839844 C 293.871094 248.390625 294.371094 245.933594 294.8125 243.464844 C 297.90625 226.199219 298.207031 208.527344 299.644531 191.082031 C 302.453125 156.996094 303.425781 122.78125 306.472656 88.714844 C 269.238281 87.902344 232 87.089844 194.761719 86.277344 " fill-opacity="1" fill-rule="nonzero"/><path fill="#4ac123" d="M 120.636719 88.449219 L 120.636719 88.675781 C 140.230469 87.710938 159.824219 86.742188 179.417969 85.777344 C 179.414062 85.527344 179.410156 85.28125 179.410156 85.035156 C 179.019531 85.027344 178.625 85.015625 178.234375 85.007812 C 178.238281 85.28125 178.238281 85.550781 178.242188 85.824219 C 159.039062 86.699219 139.835938 87.574219 120.636719 88.449219 " fill-opacity="1" fill-rule="nonzero"/><path fill="#53cc32" d="M 306.835938 75.851562 C 306.199219 70.335938 305.1875 64.734375 302.515625 59.765625 C 298.640625 52.550781 291.972656 50.347656 283.84375 50.472656 C 251.355469 50.980469 218.792969 51.441406 186.25 51.839844 C 153.710938 52.214844 121.144531 52.523438 88.65625 52.789062 C 80.523438 52.851562 73.910156 55.214844 70.207031 62.519531 C 67.65625 67.550781 66.773438 73.175781 66.269531 78.703125 C 66.019531 81.441406 66.175781 84.433594 69.210938 85.609375 C 70.667969 86.179688 72.28125 86.183594 73.851562 86.183594 C 74.121094 86.183594 74.390625 86.183594 74.664062 86.183594 C 111.992188 86.171875 149.316406 85.535156 186.644531 84.976562 C 223.972656 84.652344 261.304688 84.398438 298.625 83.53125 C 298.894531 83.523438 299.164062 83.515625 299.433594 83.511719 C 301.003906 83.472656 302.617188 83.425781 304.0625 82.828125 C 307.066406 81.578125 307.152344 78.582031 306.835938 75.851562 " fill-opacity="1" fill-rule="nonzero"/><path fill="#6bcc0e" d="M 306.835938 75.851562 C 306.199219 70.335938 305.1875 64.734375 302.515625 59.765625 C 298.640625 52.550781 291.972656 50.347656 283.84375 50.472656 C 251.355469 50.980469 218.792969 51.441406 186.25 51.839844 C 153.710938 52.214844 121.144531 52.523438 88.65625 52.789062 C 80.523438 52.851562 73.910156 55.214844 70.207031 62.519531 C 67.65625 67.550781 66.773438 73.175781 66.269531 78.703125 C 66.019531 81.441406 66.175781 84.433594 69.210938 85.609375 C 70.667969 86.179688 72.28125 86.183594 73.851562 86.183594 C 74.121094 86.183594 74.390625 86.183594 74.664062 86.183594 C 111.992188 86.171875 149.316406 85.535156 186.644531 84.976562 C 223.972656 84.652344 261.304688 84.398438 298.625 83.53125 C 298.894531 83.523438 299.164062 83.515625 299.433594 83.511719 C 301.003906 83.472656 302.617188 83.425781 304.0625 82.828125 C 307.066406 81.578125 307.152344 78.582031 306.835938 75.851562 " fill-opacity="1" fill-rule="nonzero"/><path fill="#62bf00" d="M 306.835938 75.851562 C 306.199219 70.335938 305.1875 64.734375 302.515625 59.765625 C 298.640625 52.550781 291.972656 50.347656 283.84375 50.472656 C 283.777344 50.472656 283.714844 50.476562 283.648438 50.476562 C 284.636719 53.882812 285.171875 57.4375 285.554688 60.960938 C 285.855469 63.691406 285.777344 66.6875 282.941406 67.933594 C 281.582031 68.535156 280.058594 68.578125 278.582031 68.617188 C 278.324219 68.621094 278.070312 68.628906 277.816406 68.632812 C 242.613281 69.476562 207.402344 69.703125 172.191406 70.003906 C 137.234375 70.535156 102.28125 71.136719 67.320312 71.136719 C 66.8125 73.636719 66.5 76.179688 66.269531 78.703125 C 66.019531 81.441406 66.175781 84.433594 69.210938 85.609375 C 70.667969 86.179688 72.28125 86.183594 73.851562 86.183594 C 74.121094 86.183594 74.390625 86.183594 74.664062 86.183594 C 111.992188 86.171875 149.316406 85.535156 186.644531 84.976562 C 223.972656 84.652344 261.304688 84.398438 298.625 83.53125 C 298.894531 83.523438 299.164062 83.515625 299.433594 83.511719 C 301.003906 83.472656 302.617188 83.425781 304.0625 82.828125 C 307.066406 81.578125 307.152344 78.582031 306.835938 75.851562 " fill-opacity="1" fill-rule="nonzero"/><path fill="#ffffff" d="M 218.757812 261.683594 C 218.769531 261.527344 218.78125 261.523438 218.757812 261.683594 Z M 228.652344 258.148438 C 227.75 253.390625 224.695312 248.808594 221.535156 245.25 C 219.753906 243.238281 216.054688 243.375 214.296875 245.335938 C 212.335938 247.523438 212.480469 250.433594 214.382812 252.578125 C 214.394531 252.589844 214.960938 253.265625 214.992188 253.28125 C 215.257812 253.632812 215.511719 253.992188 215.757812 254.351562 C 216.269531 255.105469 216.742188 255.878906 217.175781 256.675781 C 217.4375 257.164062 217.683594 257.65625 217.917969 258.15625 C 217.984375 258.300781 218.503906 259.753906 218.125 258.585938 C 218.339844 259.253906 218.558594 259.902344 218.730469 260.585938 C 218.738281 260.617188 218.746094 260.644531 218.753906 260.671875 C 218.753906 260.722656 218.75 260.777344 218.753906 260.847656 C 218.753906 261.148438 218.75 261.445312 218.746094 261.746094 C 218.734375 261.824219 218.714844 261.917969 218.6875 262.046875 C 218.667969 262.121094 218.652344 262.1875 218.636719 262.242188 C 218.417969 262.597656 218.199219 262.859375 218.535156 262.503906 C 218.53125 262.496094 218.554688 262.425781 218.625 262.285156 C 218.585938 262.40625 218.558594 262.476562 218.542969 262.496094 C 218.574219 262.460938 218.609375 262.425781 218.652344 262.378906 C 218.613281 262.421875 218.578125 262.460938 218.539062 262.5 L 218.535156 262.507812 C 218.289062 262.773438 218.042969 263.042969 217.796875 263.308594 C 217.546875 263.574219 217.300781 263.835938 217.035156 264.082031 C 216.960938 264.152344 216.882812 264.214844 216.808594 264.28125 C 216.785156 264.296875 216.757812 264.316406 216.730469 264.339844 C 216.121094 264.660156 215.558594 265.046875 214.949219 265.367188 C 214.851562 265.40625 214.6875 265.46875 214.515625 265.527344 C 214.105469 265.671875 213.695312 265.796875 213.273438 265.90625 C 212.925781 266 212.574219 266.085938 212.21875 266.15625 C 212.007812 266.203125 210.65625 266.324219 211.855469 266.238281 C 211.054688 266.292969 210.265625 266.382812 209.464844 266.398438 C 205.878906 266.464844 202.296875 266.332031 198.710938 266.277344 C 198.851562 265.148438 198.964844 264.019531 199.011719 262.894531 C 199.109375 260.625 196.679688 259.128906 194.734375 260.421875 C 193.738281 261.085938 192.839844 261.96875 191.917969 262.726562 C 190.417969 263.960938 188.921875 265.191406 187.421875 266.421875 C 186.503906 267.175781 185.195312 267.941406 184.773438 269.113281 C 184.101562 270.980469 185.847656 272.695312 186.820312 274.097656 C 188.082031 275.925781 189.367188 277.738281 190.644531 279.558594 C 191.460938 280.722656 192.238281 282.398438 193.804688 282.640625 C 195.3125 282.875 196.582031 281.925781 196.9375 280.476562 C 196.972656 280.34375 196.984375 280.214844 196.984375 280.09375 L 196.984375 280.089844 C 197.128906 278.886719 197.269531 277.6875 197.410156 276.488281 C 197.519531 276.496094 197.625 276.507812 197.734375 276.507812 C 206.855469 276.597656 217.074219 278.003906 224.363281 271.238281 C 228.15625 267.714844 229.613281 263.222656 228.652344 258.148438 " fill-opacity="1" fill-rule="nonzero"/><path fill="#ffffff" d="M 218.542969 262.496094 L 218.535156 262.503906 L 218.535156 262.507812 L 218.539062 262.5 L 218.542969 262.496094 " fill-opacity="1" fill-rule="nonzero"/><path fill="#ffffff" d="M 175.632812 267.386719 C 171.664062 267.226562 167.730469 267.792969 163.765625 267.648438 C 163.359375 267.632812 162.957031 267.601562 162.554688 267.578125 C 162.503906 267.574219 162.464844 267.574219 162.425781 267.570312 C 162.398438 267.566406 162.371094 267.5625 162.335938 267.554688 C 161.570312 267.414062 160.832031 267.210938 160.078125 267.011719 C 160.035156 267 160.003906 266.992188 159.96875 266.984375 C 159.945312 266.96875 159.921875 266.957031 159.890625 266.9375 C 159.617188 266.777344 159.332031 266.628906 159.054688 266.476562 C 158.972656 266.425781 158.890625 266.371094 158.808594 266.316406 C 158.546875 266.042969 158.253906 265.746094 157.96875 265.503906 C 157.945312 265.484375 157.929688 265.46875 157.914062 265.457031 C 157.894531 265.425781 157.875 265.398438 157.851562 265.355469 C 157.71875 265.132812 157.386719 264.488281 157.429688 264.675781 C 157.324219 264.339844 157.246094 264.003906 157.152344 263.664062 C 157.425781 264.679688 157.195312 263.5 157.1875 263.214844 L 157.183594 263.1875 C 157.203125 263.171875 157.226562 263.058594 157.265625 262.761719 C 157.304688 262.621094 157.34375 262.484375 157.382812 262.351562 C 157.402344 262.308594 157.421875 262.265625 157.445312 262.21875 C 157.925781 261.421875 158.4375 260.640625 158.960938 259.867188 C 159.15625 259.578125 159.359375 259.296875 159.570312 259.015625 C 159.6875 258.867188 160.066406 258.378906 160.136719 258.292969 C 160.757812 257.511719 161.386719 256.746094 161.996094 255.960938 C 162.425781 255.410156 162.847656 254.859375 163.261719 254.296875 C 164.976562 255.492188 166.863281 257.207031 169.050781 256.507812 C 171.257812 255.800781 170.71875 253.394531 170.210938 251.722656 C 169.378906 248.972656 168.90625 246.070312 168.273438 243.265625 C 167.890625 241.574219 167.195312 239.945312 165.125 240.058594 C 162.363281 240.203125 159.539062 240.863281 156.804688 241.257812 C 155.613281 241.429688 154.417969 241.574219 153.234375 241.773438 C 150.894531 242.167969 149.65625 244.910156 151.65625 246.617188 C 151.703125 246.65625 151.753906 246.695312 151.800781 246.730469 C 151.847656 246.769531 151.898438 246.804688 151.953125 246.84375 C 152.886719 247.457031 153.824219 248.074219 154.757812 248.691406 C 154.679688 248.792969 154.597656 248.894531 154.515625 249 C 154.160156 249.457031 153.796875 249.90625 153.433594 250.359375 C 151.894531 252.277344 150.382812 254.226562 149.058594 256.300781 C 145.9375 261.199219 146.445312 267.355469 149.996094 271.84375 C 156.425781 279.96875 166.835938 277.273438 175.753906 277.632812 C 178.4375 277.738281 180.964844 275.113281 180.816406 272.449219 C 180.652344 269.554688 178.503906 267.503906 175.632812 267.386719 " fill-opacity="1" fill-rule="nonzero"/><path fill="#ffffff" d="M 184.480469 223.042969 C 184.855469 222.796875 185.214844 222.535156 185.59375 222.300781 C 185.667969 222.257812 186.128906 221.996094 186.433594 221.820312 C 186.636719 221.765625 187.289062 221.511719 187.386719 221.476562 C 187.425781 221.460938 187.457031 221.449219 187.484375 221.4375 C 187.519531 221.441406 187.554688 221.441406 187.59375 221.441406 C 187.699219 221.4375 187.808594 221.4375 187.914062 221.4375 C 188.160156 221.5 188.570312 221.550781 188.691406 221.585938 C 188.757812 221.609375 188.820312 221.632812 188.886719 221.652344 C 188.921875 221.671875 188.957031 221.6875 189.003906 221.710938 C 189.292969 221.890625 189.605469 222.035156 189.894531 222.21875 C 190.039062 222.308594 190.175781 222.40625 190.316406 222.503906 C 191.628906 223.65625 192.828125 224.878906 193.953125 226.21875 C 194.203125 226.511719 194.445312 226.808594 194.6875 227.109375 C 194.796875 227.242188 194.90625 227.382812 195.015625 227.515625 C 195.03125 227.535156 195.042969 227.550781 195.058594 227.570312 C 195.777344 228.496094 196.503906 229.417969 197.234375 230.335938 C 198.300781 231.671875 199.136719 232.589844 199.933594 233.667969 C 199.226562 234.230469 198.515625 234.789062 197.804688 235.347656 C 196.460938 236.410156 195.070312 237.777344 196.152344 239.640625 C 197.050781 241.1875 199.101562 241.058594 200.660156 241.210938 C 202.964844 241.441406 205.265625 241.664062 207.566406 241.894531 C 209.285156 242.0625 211.421875 242.59375 212.449219 240.710938 C 213.128906 239.457031 213.140625 237.617188 213.386719 236.25 C 213.816406 233.84375 214.246094 231.4375 214.675781 229.03125 C 214.8125 228.285156 215.015625 227.507812 214.8125 226.753906 C 214.382812 225.144531 212.765625 224.488281 211.324219 224.921875 C 211.105469 224.941406 210.871094 225.035156 210.636719 225.21875 C 210.503906 225.296875 210.390625 225.390625 210.296875 225.488281 C 209.507812 226.113281 208.714844 226.734375 207.925781 227.359375 C 206.765625 225.898438 205.503906 224.511719 204.390625 223.003906 C 205.246094 224.160156 204.242188 222.808594 204.070312 222.59375 C 203.566406 221.953125 203.0625 221.3125 202.558594 220.675781 C 201.921875 219.875 201.28125 219.078125 200.613281 218.304688 C 197.46875 214.683594 193.558594 211.671875 188.644531 211.242188 C 183.347656 210.78125 178.355469 214.265625 174.929688 217.980469 C 171.535156 221.65625 169.121094 226.066406 166.457031 230.257812 C 165.015625 232.523438 166 236.023438 168.375 237.242188 C 170.945312 238.566406 173.820312 237.742188 175.359375 235.324219 C 176.464844 233.585938 177.515625 231.816406 178.613281 230.078125 C 179.164062 229.207031 179.730469 228.347656 180.320312 227.507812 C 180.453125 227.320312 180.585938 227.136719 180.71875 226.953125 C 180.753906 226.910156 180.792969 226.855469 180.839844 226.796875 C 181.121094 226.460938 181.390625 226.117188 181.675781 225.789062 C 182.339844 225.019531 183.046875 224.285156 183.800781 223.605469 C 183.957031 223.464844 184.121094 223.328125 184.285156 223.191406 C 184.339844 223.148438 184.398438 223.101562 184.480469 223.042969 " fill-opacity="1" fill-rule="nonzero"/><path fill="#559e00" d="M 116.699219 95.230469 L 110.828125 95.300781 C 109.3125 95.316406 108.085938 96.574219 108.105469 98.089844 L 108.214844 107.28125 C 108.234375 108.796875 109.488281 110.023438 111.003906 110.007812 L 116.871094 109.9375 C 118.386719 109.917969 119.613281 108.664062 119.597656 107.144531 L 119.488281 97.957031 C 119.46875 96.4375 118.214844 95.210938 116.699219 95.230469 " fill-opacity="1" fill-rule="nonzero"/><path fill="#559e00" d="M 186.722656 94.398438 L 180.855469 94.46875 C 179.339844 94.488281 178.113281 95.742188 178.132812 97.261719 L 178.238281 106.453125 C 178.257812 107.96875 179.511719 109.195312 181.03125 109.175781 L 186.898438 109.105469 C 188.414062 109.089844 189.640625 107.832031 189.621094 106.316406 L 189.511719 97.125 C 189.496094 95.609375 188.238281 94.382812 186.722656 94.398438 " fill-opacity="1" fill-rule="nonzero"/><path fill="#559e00" d="M 256.75 93.570312 L 250.882812 93.640625 C 249.363281 93.65625 248.140625 94.914062 248.15625 96.429688 L 248.265625 105.621094 C 248.285156 107.136719 249.539062 108.363281 251.054688 108.347656 L 256.921875 108.277344 C 258.441406 108.257812 259.664062 107.003906 259.648438 105.484375 L 259.539062 96.296875 C 259.519531 94.777344 258.265625 93.550781 256.75 93.570312 " fill-opacity="1" fill-rule="nonzero"/><path fill="#6bcc0e" d="M 113.214844 96.847656 L 107.347656 96.917969 C 105.832031 96.933594 104.605469 98.191406 104.621094 99.707031 L 104.730469 108.898438 C 104.75 110.414062 106.003906 111.640625 107.519531 111.621094 L 113.390625 111.550781 C 114.90625 111.535156 116.132812 110.28125 116.113281 108.761719 L 116.003906 99.570312 C 115.988281 98.054688 114.730469 96.828125 113.214844 96.847656 " fill-opacity="1" fill-rule="nonzero"/><path fill="#6bcc0e" d="M 183.242188 96.015625 L 177.371094 96.085938 C 175.855469 96.105469 174.628906 97.359375 174.648438 98.875 L 174.757812 108.066406 C 174.773438 109.582031 176.03125 110.808594 177.546875 110.792969 L 183.414062 110.722656 C 184.933594 110.703125 186.15625 109.449219 186.140625 107.933594 L 186.03125 98.742188 C 186.011719 97.222656 184.757812 96 183.242188 96.015625 " fill-opacity="1" fill-rule="nonzero"/><path fill="#6bcc0e" d="M 253.265625 95.1875 L 247.398438 95.253906 C 245.882812 95.273438 244.65625 96.527344 244.675781 98.046875 L 244.785156 107.238281 C 244.800781 108.753906 246.054688 109.980469 247.574219 109.960938 L 253.441406 109.890625 C 254.957031 109.875 256.183594 108.617188 256.164062 107.101562 L 256.054688 97.910156 C 256.039062 96.394531 254.78125 95.167969 253.265625 95.1875 " fill-opacity="1" fill-rule="nonzero"/><path fill="#559e00" d="M 312.90625 74.535156 L 60.171875 77.53125 C 55.507812 77.585938 51.734375 81.558594 51.792969 86.355469 L 51.90625 96.203125 C 51.964844 101 55.828125 104.882812 60.496094 104.824219 L 313.230469 101.828125 C 317.894531 101.773438 321.664062 97.804688 321.609375 93.003906 L 321.492188 83.15625 C 321.4375 78.359375 317.570312 74.480469 312.90625 74.535156 " fill-opacity="1" fill-rule="nonzero"/><path fill="#5caf00" d="M 71.460938 97.140625 C 69.71875 97.140625 67.957031 96.957031 66.324219 96.082031 C 66.109375 95.964844 65.855469 95.734375 65.605469 95.40625 C 63.957031 93.261719 64.082031 89.023438 65.980469 88.695312 C 69.097656 88.15625 72.214844 87.601562 75.339844 87.34375 C 76.480469 87.246094 77.617188 87.191406 78.757812 87.191406 C 79.179688 87.191406 79.605469 87.199219 80.03125 87.214844 C 81.59375 87.289062 83.152344 87.488281 84.714844 87.835938 C 85.132812 87.925781 85.570312 88.0625 85.925781 88.648438 C 88.207031 92.414062 84.089844 95.535156 83.058594 95.800781 C 80.230469 96.519531 77.402344 96.980469 74.5625 97.046875 C 73.5625 97.074219 72.515625 97.140625 71.460938 97.140625 " fill-opacity="1" fill-rule="nonzero"/><path fill="#5caf00" d="M 109.5 96.523438 C 106.433594 96.523438 103.371094 96.332031 100.503906 95.632812 C 100.054688 95.523438 99.535156 95.300781 99.015625 94.980469 C 95.605469 92.875 95.949219 88.632812 99.867188 88.257812 C 109.625 87.308594 119.402344 86.199219 129.234375 86.199219 C 132.378906 86.199219 135.527344 86.3125 138.683594 86.578125 C 139.558594 86.652344 140.472656 86.769531 141.214844 87.34375 C 145.972656 91.011719 137.445312 94.300781 135.324219 94.628906 C 129.480469 95.503906 123.597656 96.074219 117.691406 96.273438 C 115.0625 96.363281 112.28125 96.523438 109.5 96.523438 " fill-opacity="1" fill-rule="nonzero"/><path fill="#5caf00" d="M 116.769531 49.527344 C 114.355469 49.527344 111.917969 49.371094 109.664062 48.664062 C 109.359375 48.566406 109.007812 48.375 108.660156 48.105469 C 106.355469 46.320312 106.589844 42.789062 109.265625 42.511719 C 115.328125 41.875 121.394531 41.210938 127.46875 41.210938 C 130.195312 41.210938 132.921875 41.34375 135.652344 41.675781 C 136.246094 41.746094 136.863281 41.851562 137.363281 42.335938 C 140.578125 45.441406 134.769531 48.101562 133.320312 48.339844 C 129.332031 48.992188 125.324219 49.371094 121.3125 49.4375 C 119.847656 49.464844 118.3125 49.527344 116.769531 49.527344 " fill-opacity="1" fill-rule="nonzero"/><path fill="#62bf00" d="M 253.464844 68.878906 C 253.105469 65.445312 252.535156 61.960938 251.039062 58.863281 C 248.863281 54.371094 245.132812 52.996094 240.589844 53.070312 C 222.417969 53.359375 204.207031 53.625 186.011719 53.847656 C 167.8125 54.054688 149.601562 54.222656 131.429688 54.363281 C 126.882812 54.398438 123.1875 55.863281 121.121094 60.40625 C 119.699219 63.535156 119.210938 67.03125 118.933594 70.472656 C 118.792969 72.175781 118.882812 74.039062 120.582031 74.773438 C 121.398438 75.128906 122.300781 75.132812 123.175781 75.136719 C 123.328125 75.136719 123.480469 75.136719 123.632812 75.136719 C 144.507812 75.152344 165.382812 74.789062 186.253906 74.464844 C 207.132812 74.292969 228.007812 74.164062 248.878906 73.652344 C 249.03125 73.648438 249.179688 73.644531 249.332031 73.640625 C 250.210938 73.617188 251.113281 73.589844 251.917969 73.21875 C 253.597656 72.441406 253.644531 70.578125 253.464844 68.878906 " fill-opacity="1" fill-rule="nonzero"/><path fill="#559e00" d="M 246.5 65.5 C 246.1875 63.238281 245.683594 60.941406 244.351562 58.902344 C 242.414062 55.941406 239.070312 55.046875 234.992188 55.105469 C 218.695312 55.351562 202.359375 55.574219 186.035156 55.773438 C 169.710938 55.960938 153.375 56.125 137.074219 56.265625 C 132.996094 56.304688 129.675781 57.28125 127.808594 60.28125 C 126.523438 62.351562 126.078125 64.660156 125.816406 66.933594 C 125.6875 68.058594 125.765625 69.285156 127.285156 69.765625 C 128.015625 69.996094 128.824219 70 129.609375 69.996094 C 129.746094 69.996094 129.882812 69.996094 130.019531 69.996094 C 148.746094 69.949219 167.46875 69.648438 186.195312 69.375 C 204.921875 69.203125 223.648438 69.058594 242.371094 68.664062 C 242.507812 68.660156 242.644531 68.65625 242.777344 68.652344 C 243.566406 68.636719 244.375 68.617188 245.097656 68.367188 C 246.609375 67.851562 246.652344 66.625 246.5 65.5 " fill-opacity="1" fill-rule="nonzero"/><path fill="#ffa4a4" d="M 157.3125 185.453125 C 155.46875 181.6875 150.75 180.402344 146.90625 180.867188 C 146.882812 180.871094 146.863281 180.878906 146.84375 180.882812 C 146.824219 180.882812 146.804688 180.882812 146.785156 180.882812 C 143.511719 181.359375 139.210938 183.179688 138.253906 186.710938 C 137.273438 190.328125 140.988281 192.90625 144.035156 193.6875 C 147.214844 194.503906 150.695312 194.042969 153.640625 192.621094 C 156.339844 191.316406 158.847656 188.585938 157.3125 185.453125 " fill-opacity="1" fill-rule="nonzero"/><path fill="#ffa4a4" d="M 226.125 180.882812 C 226.105469 180.882812 226.085938 180.882812 226.066406 180.882812 C 226.042969 180.878906 226.023438 180.871094 226.003906 180.867188 C 222.398438 180.429688 218.523438 181.445312 216.234375 184.441406 C 215.3125 185.648438 214.816406 187.183594 215.300781 188.675781 C 215.769531 190.121094 216.921875 191.226562 218.175781 192.019531 C 220.914062 193.746094 224.402344 194.402344 227.585938 193.941406 C 230.597656 193.503906 234.710938 191.546875 234.8125 188.015625 C 234.9375 183.734375 229.636719 181.394531 226.125 180.882812 " fill-opacity="1" fill-rule="nonzero"/><path fill="#300000" d="M 197.582031 180.320312 C 197.066406 178.703125 194.863281 178.324219 193.816406 179.683594 C 193.304688 180.351562 193.304688 181.4375 193.039062 182.222656 C 192.597656 183.546875 191.914062 184.824219 190.957031 185.851562 C 188.945312 188.003906 185.867188 188.46875 183.402344 186.761719 C 182.144531 185.894531 181.195312 184.621094 180.542969 183.25 C 180.074219 182.257812 180.0625 180.769531 179.242188 179.996094 C 177.601562 178.445312 175.390625 180 175.617188 182.019531 L 175.621094 182.039062 C 175.625 182.0625 175.625 182.085938 175.628906 182.109375 C 176.574219 186.597656 179.976562 190.917969 184.601562 191.941406 C 189.160156 192.957031 193.535156 190.285156 195.847656 186.457031 C 196.789062 184.90625 198.179688 182.179688 197.582031 180.320312 " fill-opacity="1" fill-rule="nonzero"/><path fill="#300000" d="M 139.015625 173.304688 C 141.484375 176.277344 145.558594 178.535156 149.488281 178.546875 C 153.523438 178.558594 157.019531 175.886719 159.007812 172.535156 C 160.660156 169.746094 156.320312 167.21875 154.671875 170 C 153.53125 171.917969 151.5 173.742188 149.113281 173.511719 C 146.53125 173.261719 144.1875 171.699219 142.566406 169.753906 C 141.699219 168.710938 139.914062 168.855469 139.015625 169.753906 C 137.984375 170.785156 138.148438 172.257812 139.015625 173.304688 " fill-opacity="1" fill-rule="nonzero"/><path fill="#300000" d="M 213.59375 173.304688 C 216.0625 176.277344 220.132812 178.535156 224.066406 178.546875 C 228.097656 178.558594 231.59375 175.886719 233.585938 172.535156 C 235.238281 169.746094 230.898438 167.21875 229.246094 170 C 228.109375 171.917969 226.078125 173.742188 223.6875 173.511719 C 221.105469 173.261719 218.761719 171.699219 217.144531 169.753906 C 216.277344 168.710938 214.488281 168.855469 213.59375 169.753906 C 212.558594 170.785156 212.722656 172.257812 213.59375 173.304688 " fill-opacity="1" fill-rule="nonzero"/></svg>