<svg xmlns="http://www.w3.org/2000/svg" xmlns:xlink="http://www.w3.org/1999/xlink" width="500" zoomAndPan="magnify" viewBox="0 0 375 374.999991" height="500" preserveAspectRatio="xMidYMid meet" version="1.0"><defs><clipPath id="d37e2da332"><path d="M 103.28125 82 L 262 82 L 262 279 L 103.28125 279 Z M 103.28125 82 " clip-rule="nonzero"/></clipPath><clipPath id="bd62b85e4c"><path d="M 103.28125 240 L 224 240 L 224 340 L 103.28125 340 Z M 103.28125 240 " clip-rule="nonzero"/></clipPath></defs><path fill="#f2cc4d" d="M 141.523438 96.019531 C 140.804688 98.605469 139.960938 102.070312 139.355469 104.558594 C 137.933594 110.429688 136.648438 116.335938 135.351562 122.234375 C 130.019531 146.535156 123.367188 170.609375 118.734375 195.050781 C 117.179688 203.261719 115.578125 211.460938 113.898438 219.644531 C 112.890625 224.554688 111.679688 228.738281 110.507812 233.609375 C 109.828125 236.4375 109.339844 239.289062 108.660156 242.113281 C 107.933594 245.125 106.027344 255.175781 106.027344 255.175781 C 106.027344 255.175781 111.179688 255.628906 112.832031 255.714844 C 114.5625 255.804688 116.308594 255.898438 118.03125 256.101562 C 120.847656 256.433594 123.605469 257.117188 126.402344 257.558594 C 131.660156 258.386719 136.957031 259.066406 142.269531 259.441406 C 150.863281 260.050781 159.523438 261.652344 167.9375 263.492188 C 180.246094 266.1875 192.285156 269.699219 204.175781 273.796875 C 210.171875 275.863281 221.195312 275.890625 221.195312 275.890625 C 221.195312 275.890625 222.613281 271.558594 222.960938 270.058594 C 223.925781 265.898438 224.859375 262.046875 226.125 257.964844 C 231.097656 241.910156 235.390625 227.417969 239.566406 211.109375 C 242.5 199.65625 245.785156 187.480469 248.429688 175.957031 C 250.472656 167.070312 253.019531 157.65625 254.734375 148.707031 C 256.03125 141.945312 257.101562 136.207031 258.347656 128.722656 C 258.445312 128.144531 259.453125 123.628906 259.496094 123.164062 C 259.765625 120.050781 256.492188 115.625 254.855469 112.753906 C 253.414062 110.214844 251.855469 107.792969 249.5625 105.90625 C 247.316406 104.0625 243.957031 103.359375 241.289062 102.3125 C 235.621094 100.089844 229.925781 97.886719 224.242188 95.707031 C 215.058594 92.1875 205.652344 89.15625 195.976562 87.320312 C 184.894531 85.214844 174.046875 84.921875 162.890625 86.09375 C 159.054688 86.496094 145.074219 90.113281 141.523438 96.019531 Z M 141.523438 96.019531 " fill-opacity="1" fill-rule="evenodd"/><g clip-path="url(#d37e2da332)"><path fill="#152f52" d="M 139.445312 94.777344 C 139.332031 94.960938 139.246094 95.164062 139.1875 95.375 C 138.464844 97.984375 137.609375 101.480469 137 103.992188 C 135.574219 109.878906 134.285156 115.800781 132.984375 121.714844 C 127.648438 146.042969 120.988281 170.136719 116.351562 194.601562 C 114.796875 202.800781 113.203125 210.988281 111.523438 219.160156 C 110.519531 224.039062 109.316406 228.203125 108.152344 233.046875 C 107.472656 235.871094 106.984375 238.726562 106.300781 241.550781 C 105.570312 244.589844 103.648438 254.726562 103.648438 254.726562 C 103.519531 255.398438 103.683594 256.089844 104.09375 256.632812 C 104.507812 257.175781 105.132812 257.523438 105.8125 257.582031 C 105.8125 257.582031 111.035156 258.042969 112.707031 258.128906 C 114.386719 258.214844 116.074219 258.300781 117.746094 258.5 C 120.527344 258.832031 123.253906 259.507812 126.019531 259.945312 C 131.347656 260.785156 136.714844 261.472656 142.097656 261.855469 C 150.578125 262.453125 159.121094 264.039062 167.417969 265.855469 C 179.632812 268.527344 191.582031 272.011719 203.386719 276.082031 C 209.65625 278.246094 221.1875 278.308594 221.1875 278.308594 C 222.238281 278.3125 223.171875 277.636719 223.496094 276.640625 C 223.496094 276.640625 224.960938 272.160156 225.324219 270.605469 C 226.273438 266.503906 227.191406 262.707031 228.4375 258.679688 C 233.429688 242.585938 237.726562 228.054688 241.914062 211.707031 C 244.851562 200.234375 248.140625 188.039062 250.792969 176.496094 C 252.84375 167.582031 255.394531 158.136719 257.113281 149.164062 C 258.414062 142.378906 259.488281 136.625 260.738281 129.117188 C 260.839844 128.519531 261.867188 123.851562 261.910156 123.375 C 262.046875 121.769531 261.539062 119.871094 260.644531 117.960938 C 259.578125 115.675781 257.972656 113.328125 256.964844 111.558594 C 255.375 108.765625 253.628906 106.117188 251.105469 104.042969 C 248.671875 102.042969 245.066406 101.195312 242.175781 100.0625 C 236.503906 97.835938 230.800781 95.632812 225.113281 93.453125 C 215.792969 89.882812 206.246094 86.808594 196.425781 84.945312 C 185.109375 82.796875 174.03125 82.492188 162.636719 83.6875 C 160.203125 83.945312 153.914062 85.402344 148.464844 87.890625 C 144.53125 89.691406 141.070312 92.074219 139.445312 94.777344 Z M 143.765625 97.007812 C 145.054688 95.105469 147.664062 93.574219 150.484375 92.289062 C 155.355469 90.0625 160.972656 88.722656 163.144531 88.496094 C 174.0625 87.347656 184.675781 87.636719 195.519531 89.695312 C 205.054688 91.503906 214.324219 94.496094 223.375 97.964844 C 229.050781 100.140625 234.738281 102.339844 240.398438 104.558594 C 242.84375 105.519531 245.964844 106.082031 248.023438 107.773438 C 250.078125 109.464844 251.453125 111.667969 252.75 113.945312 C 253.703125 115.621094 255.242188 117.839844 256.253906 120.003906 C 256.746094 121.058594 257.15625 122.074219 257.082031 122.957031 C 257.042969 123.40625 256.050781 127.769531 255.957031 128.328125 C 254.714844 135.789062 253.644531 141.511719 252.351562 148.253906 C 250.644531 157.171875 248.105469 166.554688 246.066406 175.414062 C 243.425781 186.921875 240.148438 199.074219 237.21875 210.511719 C 233.050781 226.777344 228.773438 241.234375 223.808594 257.253906 C 222.523438 261.390625 221.578125 265.296875 220.597656 269.515625 C 220.40625 270.355469 219.859375 272.117188 219.4375 273.441406 C 216.199219 273.351562 209.242188 272.988281 204.96875 271.511719 C 192.988281 267.382812 180.855469 263.847656 168.457031 261.132812 C 159.929688 259.265625 151.152344 257.648438 142.4375 257.03125 C 137.199219 256.660156 131.96875 255.992188 126.78125 255.171875 C 123.953125 254.722656 121.164062 254.039062 118.316406 253.699219 C 116.539062 253.488281 114.742188 253.390625 112.957031 253.300781 C 112.128906 253.257812 110.40625 253.121094 108.914062 252.996094 C 109.523438 249.828125 110.53125 244.683594 111.015625 242.679688 C 111.695312 239.855469 112.183594 237 112.863281 234.175781 C 114.042969 229.277344 115.257812 225.066406 116.273438 220.132812 C 117.957031 211.933594 119.554688 203.722656 121.113281 195.5 C 125.742188 171.082031 132.394531 147.03125 137.722656 122.75 C 139.011719 116.867188 140.292969 110.980469 141.710938 105.128906 C 142.285156 102.769531 143.074219 99.527344 143.765625 97.007812 Z M 143.765625 97.007812 " fill-opacity="1" fill-rule="evenodd"/></g><path fill="#ede2dc" d="M 106.027344 255.175781 C 106.027344 255.175781 106.957031 257.769531 107.351562 258.628906 C 108.34375 260.777344 109.304688 262.941406 110.328125 265.070312 C 113.027344 270.675781 116.140625 276.0625 118.988281 281.589844 C 126.03125 295.261719 132.089844 308.945312 138.761719 322.8125 C 139.882812 325.144531 144.609375 335.820312 147.355469 337.082031 C 148.554688 337.632812 151.039062 335.09375 151.789062 334.527344 C 156.203125 331.214844 160.554688 327.835938 164.925781 324.46875 C 179.667969 313.097656 194.609375 301.308594 208.402344 288.820312 C 210.582031 286.84375 221.195312 275.890625 221.195312 275.890625 C 221.195312 275.890625 218.304688 270.796875 216.554688 268.996094 C 210.710938 263.003906 202.992188 258.417969 195.40625 254.964844 C 174.613281 245.5 160.320312 239.460938 133.074219 245.164062 C 126.195312 246.605469 106.027344 255.175781 106.027344 255.175781 Z M 106.027344 255.175781 " fill-opacity="1" fill-rule="evenodd"/><g clip-path="url(#bd62b85e4c)"><path fill="#152f52" d="M 105.078125 252.953125 C 103.898438 253.453125 103.3125 254.785156 103.746094 255.988281 C 103.746094 255.988281 104.730469 258.730469 105.152344 259.640625 C 106.148438 261.800781 107.113281 263.976562 108.144531 266.117188 C 110.851562 271.738281 113.976562 277.148438 116.832031 282.695312 C 123.863281 296.347656 129.914062 310.011719 136.574219 323.859375 C 137.378906 325.527344 140 331.382812 142.460938 335.191406 C 143.816406 337.285156 145.257812 338.777344 146.339844 339.277344 C 147.253906 339.695312 148.492188 339.683594 149.785156 339.039062 C 151.109375 338.378906 152.664062 336.898438 153.25 336.460938 C 157.667969 333.136719 162.03125 329.757812 166.40625 326.378906 C 181.199219 314.96875 196.191406 303.140625 210.03125 290.609375 C 212.230469 288.617188 222.9375 277.570312 222.9375 277.570312 C 223.683594 276.800781 223.832031 275.632812 223.304688 274.703125 C 223.304688 274.703125 220.175781 269.246094 218.292969 267.3125 C 212.246094 261.109375 204.265625 256.339844 196.410156 252.765625 C 175.121094 243.074219 160.472656 236.957031 132.574219 242.796875 C 125.582031 244.261719 105.078125 252.953125 105.078125 252.953125 Z M 147.949219 334.488281 L 147.832031 334.351562 C 147.417969 333.875 146.980469 333.261719 146.535156 332.574219 C 144.191406 328.945312 141.710938 323.359375 140.945312 321.769531 C 134.265625 307.882812 128.195312 294.175781 121.144531 280.484375 C 118.304688 274.976562 115.203125 269.609375 112.515625 264.027344 C 111.492188 261.90625 110.539062 259.753906 109.554688 257.617188 C 109.4375 257.363281 109.273438 256.953125 109.101562 256.503906 C 114.398438 254.292969 128.160156 248.664062 133.570312 247.527344 C 160.164062 241.960938 174.105469 247.925781 194.398438 257.164062 C 201.71875 260.496094 209.179688 264.902344 214.816406 270.683594 C 215.835938 271.730469 217.261719 273.988281 218.175781 275.523438 C 215.3125 278.472656 208.46875 285.492188 206.773438 287.03125 C 193.027344 299.476562 178.132812 311.222656 163.445312 322.554688 C 159.082031 325.921875 154.734375 329.289062 150.332031 332.597656 C 150.019531 332.832031 149.417969 333.394531 148.726562 333.949219 C 148.519531 334.117188 148.207031 334.324219 147.949219 334.488281 Z M 147.949219 334.488281 " fill-opacity="1" fill-rule="evenodd"/></g><path fill="#152f52" d="M 133.515625 311.734375 C 137.238281 310.636719 141.261719 309.957031 145.113281 310.207031 C 151.625 310.636719 163.46875 314.328125 169.917969 320.605469 C 168.25 321.898438 166.585938 323.1875 164.925781 324.46875 C 160.554688 327.835938 156.203125 331.214844 151.789062 334.527344 C 151.039062 335.09375 148.554688 337.632812 147.355469 337.082031 C 144.609375 335.820312 139.882812 325.144531 138.761719 322.8125 C 136.980469 319.109375 135.242188 315.417969 133.515625 311.734375 Z M 133.515625 311.734375 " fill-opacity="1" fill-rule="evenodd"/><path fill="#152f52" d="M 132.828125 309.417969 C 132.148438 309.621094 131.59375 310.105469 131.304688 310.746094 C 131.015625 311.386719 131.019531 312.121094 131.320312 312.761719 C 133.046875 316.449219 134.789062 320.148438 136.574219 323.859375 C 137.378906 325.527344 140 331.382812 142.460938 335.191406 C 143.816406 337.285156 145.257812 338.777344 146.339844 339.277344 C 147.253906 339.695312 148.492188 339.683594 149.785156 339.039062 C 151.109375 338.378906 152.664062 336.898438 153.25 336.460938 C 157.667969 333.136719 162.03125 329.757812 166.40625 326.378906 C 168.070312 325.097656 169.738281 323.808594 171.40625 322.511719 C 171.957031 322.085938 172.296875 321.4375 172.335938 320.738281 C 172.378906 320.042969 172.109375 319.363281 171.609375 318.875 C 164.757812 312.207031 152.1875 308.253906 145.269531 307.796875 C 141.140625 307.523438 136.820312 308.238281 132.828125 309.417969 Z M 147.949219 334.488281 L 147.832031 334.351562 C 147.417969 333.875 146.980469 333.261719 146.535156 332.574219 C 144.191406 328.945312 141.710938 323.359375 140.945312 321.769531 C 139.589844 318.953125 138.261719 316.144531 136.945312 313.339844 C 139.582031 312.753906 142.308594 312.445312 144.953125 312.621094 C 150.394531 312.980469 159.828125 315.742188 166.09375 320.507812 C 165.207031 321.195312 164.324219 321.875 163.445312 322.554688 C 159.082031 325.921875 154.734375 329.289062 150.332031 332.597656 C 150.019531 332.832031 149.417969 333.394531 148.726562 333.949219 C 148.519531 334.117188 148.207031 334.324219 147.949219 334.488281 Z M 147.949219 334.488281 " fill-opacity="1" fill-rule="evenodd"/><path fill="#fdabad" d="M 141.523438 96.019531 C 141.523438 96.019531 144.144531 82.09375 146.113281 75.648438 C 148.367188 68.277344 150.355469 60.195312 154.945312 53.84375 C 167.65625 36.257812 196.289062 37.757812 215.027344 39.941406 C 231.875 41.910156 250.628906 49.460938 260.230469 64.585938 C 269.664062 79.453125 268.707031 91.226562 263.847656 108.128906 C 263.238281 110.25 259.496094 123.164062 259.496094 123.164062 C 259.496094 123.164062 251.125 116.671875 250.105469 115.84375 C 242.582031 109.726562 234.558594 104.507812 225.578125 100.773438 C 215.734375 96.675781 205.476562 93.398438 194.941406 91.1875 C 172.1875 86.410156 141.523438 96.019531 141.523438 96.019531 Z M 141.523438 96.019531 " fill-opacity="1" fill-rule="evenodd"/><path fill="#152f52" d="M 139.140625 95.574219 C 138.984375 96.410156 139.277344 97.265625 139.914062 97.828125 C 140.550781 98.390625 141.4375 98.582031 142.25 98.324219 C 142.25 98.324219 172.210938 88.886719 194.441406 93.554688 C 204.828125 95.734375 214.941406 98.964844 224.648438 103.003906 C 233.410156 106.644531 241.234375 111.75 248.574219 117.71875 C 249.597656 118.550781 258.007812 125.074219 258.007812 125.074219 C 258.640625 125.566406 259.480469 125.710938 260.246094 125.464844 C 261.007812 125.21875 261.601562 124.605469 261.824219 123.835938 C 261.824219 123.835938 265.570312 110.917969 266.179688 108.796875 C 271.253906 91.125 272.136719 78.832031 262.277344 63.292969 C 252.289062 47.554688 232.839844 39.585938 215.308594 37.542969 C 203.816406 36.199219 188.683594 35.152344 175.605469 38.378906 C 166.507812 40.625 158.402344 44.929688 152.976562 52.429688 C 148.234375 58.992188 146.121094 67.328125 143.796875 74.941406 C 141.804688 81.46875 139.140625 95.574219 139.140625 95.574219 Z M 144.65625 92.628906 C 145.566406 88.078125 147.140625 80.582031 148.433594 76.351562 C 150.609375 69.230469 152.476562 61.394531 156.910156 55.257812 C 161.65625 48.695312 168.8125 45.035156 176.769531 43.070312 C 189.277344 39.984375 203.753906 41.0625 214.742188 42.34375 C 230.914062 44.230469 248.96875 51.363281 258.179688 65.878906 C 267.1875 80.074219 266.15625 91.324219 261.519531 107.464844 C 261.113281 108.875 259.316406 115.082031 258.160156 119.066406 C 255.640625 117.109375 252.261719 114.476562 251.636719 113.972656 C 243.933594 107.707031 235.707031 102.363281 226.511719 98.542969 C 216.527344 94.386719 206.121094 91.066406 195.441406 88.824219 C 177.105469 84.972656 153.742188 90.226562 144.65625 92.628906 Z M 144.65625 92.628906 " fill-opacity="1" fill-rule="evenodd"/><path fill="#ede2dc" d="M 143.789062 84.964844 C 145.773438 84.332031 147.789062 83.773438 149.765625 83.15625 C 159.742188 80.058594 170.886719 78.679688 181.324219 78.773438 C 208.734375 79.03125 234.6875 87.796875 255.46875 105.800781 C 257.921875 107.925781 260.316406 110.214844 262.539062 112.652344 C 261.242188 117.148438 259.496094 123.164062 259.496094 123.164062 C 259.496094 123.164062 251.125 116.671875 250.105469 115.84375 C 242.582031 109.726562 234.558594 104.507812 225.578125 100.773438 C 215.734375 96.675781 205.476562 93.398438 194.941406 91.1875 C 172.1875 86.410156 141.523438 96.019531 141.523438 96.019531 C 141.523438 96.019531 142.542969 90.601562 143.789062 84.964844 Z M 143.789062 84.964844 " fill-opacity="1" fill-rule="evenodd"/><path fill="#152f52" d="M 143.050781 82.664062 C 142.226562 82.925781 141.609375 83.605469 141.421875 84.445312 C 140.167969 90.121094 139.140625 95.574219 139.140625 95.574219 C 138.984375 96.410156 139.277344 97.265625 139.914062 97.828125 C 140.550781 98.390625 141.4375 98.582031 142.25 98.324219 C 142.25 98.324219 172.210938 88.886719 194.441406 93.554688 C 204.828125 95.734375 214.941406 98.964844 224.648438 103.003906 C 233.410156 106.644531 241.234375 111.75 248.574219 117.71875 C 249.597656 118.550781 258.007812 125.074219 258.007812 125.074219 C 258.640625 125.566406 259.480469 125.710938 260.246094 125.464844 C 261.007812 125.21875 261.601562 124.605469 261.824219 123.835938 C 261.824219 123.835938 263.566406 117.820312 264.871094 113.324219 C 265.101562 112.519531 264.902344 111.648438 264.335938 111.027344 C 262.046875 108.519531 259.582031 106.160156 257.058594 103.976562 C 235.835938 85.589844 209.339844 76.621094 181.347656 76.359375 C 170.664062 76.257812 159.257812 77.675781 149.046875 80.851562 C 147.058594 81.46875 145.039062 82.027344 143.050781 82.664062 Z M 145.859375 86.851562 C 147.402344 86.382812 148.957031 85.941406 150.488281 85.464844 C 160.230469 82.441406 171.113281 81.097656 181.304688 81.191406 C 208.128906 81.445312 233.539062 90.003906 253.878906 107.625 C 255.929688 109.398438 257.9375 111.292969 259.832031 113.292969 C 259.265625 115.257812 258.652344 117.367188 258.160156 119.066406 C 255.640625 117.109375 252.261719 114.476562 251.636719 113.972656 C 243.933594 107.707031 235.707031 102.363281 226.511719 98.542969 C 216.527344 94.386719 206.121094 91.066406 195.441406 88.824219 C 177.105469 84.972656 153.746094 90.226562 144.65625 92.625 C 144.984375 90.988281 145.398438 88.96875 145.855469 86.851562 Z M 145.859375 86.851562 " fill-opacity="1" fill-rule="evenodd"/><path fill="#152f52" d="M 223.429688 152.101562 C 223.347656 152.558594 223.222656 153 223.050781 153.433594 C 222.882812 153.863281 222.671875 154.277344 222.421875 154.664062 C 222.167969 155.054688 221.882812 155.417969 221.558594 155.75 C 221.234375 156.085938 220.882812 156.386719 220.503906 156.648438 C 220.121094 156.914062 219.714844 157.140625 219.289062 157.324219 C 218.863281 157.511719 218.421875 157.652344 217.96875 157.75 C 217.515625 157.847656 217.054688 157.902344 216.589844 157.910156 C 216.125 157.917969 215.664062 157.882812 215.207031 157.800781 C 214.75 157.71875 214.304688 157.59375 213.871094 157.421875 C 213.4375 157.253906 213.027344 157.042969 212.632812 156.792969 C 212.242188 156.542969 211.878906 156.253906 211.546875 155.933594 C 211.210938 155.613281 210.910156 155.261719 210.644531 154.878906 C 210.378906 154.5 210.152344 154.097656 209.96875 153.671875 C 209.78125 153.246094 209.640625 152.804688 209.542969 152.351562 C 209.441406 151.898438 209.386719 151.441406 209.378906 150.976562 C 209.371094 150.515625 209.410156 150.054688 209.492188 149.597656 C 209.574219 149.140625 209.699219 148.699219 209.871094 148.265625 C 210.039062 147.835938 210.25 147.421875 210.5 147.03125 C 210.753906 146.644531 211.039062 146.28125 211.363281 145.945312 C 211.683594 145.613281 212.039062 145.3125 212.417969 145.050781 C 212.800781 144.785156 213.207031 144.558594 213.632812 144.375 C 214.058594 144.1875 214.5 144.046875 214.953125 143.949219 C 215.40625 143.851562 215.867188 143.796875 216.332031 143.789062 C 216.796875 143.777344 217.257812 143.816406 217.714844 143.898438 C 218.171875 143.980469 218.617188 144.105469 219.050781 144.277344 C 219.484375 144.445312 219.894531 144.65625 220.289062 144.90625 C 220.679688 145.15625 221.042969 145.441406 221.375 145.765625 C 221.710938 146.085938 222.011719 146.4375 222.277344 146.820312 C 222.542969 147.199219 222.765625 147.601562 222.953125 148.027344 C 223.140625 148.453125 223.28125 148.890625 223.378906 149.34375 C 223.480469 149.796875 223.535156 150.257812 223.542969 150.722656 C 223.550781 151.183594 223.511719 151.644531 223.429688 152.101562 Z M 223.429688 152.101562 " fill-opacity="1" fill-rule="nonzero"/><path fill="#152f52" d="M 177.535156 144.300781 C 177.453125 144.753906 177.328125 145.199219 177.15625 145.632812 C 176.988281 146.0625 176.777344 146.472656 176.523438 146.863281 C 176.273438 147.253906 175.984375 147.617188 175.664062 147.949219 C 175.339844 148.285156 174.988281 148.582031 174.605469 148.847656 C 174.226562 149.113281 173.820312 149.335938 173.394531 149.523438 C 172.96875 149.707031 172.527344 149.851562 172.074219 149.949219 C 171.617188 150.046875 171.160156 150.101562 170.695312 150.109375 C 170.230469 150.117188 169.769531 150.082031 169.3125 150 C 168.851562 149.917969 168.40625 149.789062 167.976562 149.621094 C 167.542969 149.453125 167.128906 149.242188 166.738281 148.992188 C 166.347656 148.742188 165.984375 148.453125 165.648438 148.132812 C 165.316406 147.808594 165.015625 147.457031 164.75 147.078125 C 164.484375 146.695312 164.257812 146.292969 164.074219 145.867188 C 163.886719 145.445312 163.746094 145.003906 163.644531 144.550781 C 163.546875 144.097656 163.492188 143.640625 163.484375 143.175781 C 163.476562 142.710938 163.511719 142.253906 163.59375 141.796875 C 163.679688 141.339844 163.804688 140.894531 163.972656 140.464844 C 164.144531 140.03125 164.355469 139.621094 164.605469 139.230469 C 164.859375 138.839844 165.144531 138.480469 165.46875 138.144531 C 165.789062 137.8125 166.140625 137.511719 166.523438 137.246094 C 166.90625 136.984375 167.308594 136.757812 167.738281 136.574219 C 168.164062 136.386719 168.601562 136.246094 169.058594 136.148438 C 169.511719 136.046875 169.972656 135.996094 170.4375 135.984375 C 170.902344 135.976562 171.363281 136.015625 171.820312 136.097656 C 172.277344 136.179688 172.722656 136.304688 173.15625 136.472656 C 173.589844 136.644531 174 136.855469 174.390625 137.105469 C 174.785156 137.355469 175.144531 137.640625 175.480469 137.964844 C 175.816406 138.285156 176.117188 138.636719 176.382812 139.015625 C 176.648438 139.398438 176.871094 139.800781 177.058594 140.226562 C 177.242188 140.652344 177.386719 141.089844 177.484375 141.542969 C 177.582031 141.996094 177.636719 142.457031 177.644531 142.917969 C 177.65625 143.382812 177.617188 143.84375 177.535156 144.300781 Z M 177.535156 144.300781 " fill-opacity="1" fill-rule="nonzero"/><path fill="#152f52" d="M 179.59375 155.867188 C 179.632812 156.46875 180.289062 158.800781 180.523438 159.355469 C 181.292969 161.183594 182.429688 162.585938 183.949219 163.929688 C 190.621094 169.839844 200.0625 168.980469 205.828125 161.925781 C 206.675781 160.894531 206.519531 159.371094 205.484375 158.527344 C 204.445312 157.683594 202.917969 157.839844 202.074219 158.871094 C 198.140625 163.679688 191.714844 164.34375 187.167969 160.316406 C 186.21875 159.476562 185.472656 158.621094 184.988281 157.480469 C 184.859375 157.171875 184.425781 155.484375 184.425781 155.484375 C 184.425781 155.484375 184.433594 155.539062 184.433594 155.558594 C 184.347656 154.226562 183.195312 153.214844 181.859375 153.300781 C 180.523438 153.386719 179.511719 154.535156 179.59375 155.867188 Z M 179.59375 155.867188 " fill-opacity="1" fill-rule="evenodd"/></svg>