<svg xmlns="http://www.w3.org/2000/svg" xmlns:xlink="http://www.w3.org/1999/xlink" width="500" zoomAndPan="magnify" viewBox="0 0 375 374.999991" height="500" preserveAspectRatio="xMidYMid meet" version="1.0"><defs><g/></defs><g fill="#517a92" fill-opacity="1"><g transform="translate(75.530563, 253.043673)"><g><path d="M 6.359375 -6.015625 C 5.484375 -5.085938 4.546875 -4.625 3.546875 -4.625 C 2.554688 -4.625 1.597656 -5.066406 0.671875 -5.953125 L -25.59375 -30.734375 C -26.550781 -31.640625 -27.035156 -32.582031 -27.046875 -33.5625 C -27.054688 -34.539062 -26.625 -35.492188 -25.75 -36.421875 L -15.484375 -47.296875 C -12.191406 -50.785156 -8.78125 -52.648438 -5.25 -52.890625 C -1.71875 -53.140625 1.609375 -51.785156 4.734375 -48.828125 C 7.859375 -45.890625 9.40625 -42.640625 9.375 -39.078125 C 9.351562 -35.523438 7.695312 -32.003906 4.40625 -28.515625 L -3.171875 -20.484375 L 6.125 -11.71875 C 7.050781 -10.832031 7.550781 -9.898438 7.625 -8.921875 C 7.695312 -7.953125 7.273438 -6.984375 6.359375 -6.015625 Z M -7.734375 -24.796875 L -1.015625 -31.921875 C 0.910156 -33.960938 1.910156 -35.941406 1.984375 -37.859375 C 2.066406 -39.773438 1.222656 -41.566406 -0.546875 -43.234375 C -2.328125 -44.921875 -4.164062 -45.660156 -6.0625 -45.453125 C -7.957031 -45.253906 -9.867188 -44.132812 -11.796875 -42.09375 L -18.515625 -34.96875 Z M -7.734375 -24.796875 "/></g></g></g><g fill="#517a92" fill-opacity="1"><g transform="translate(107.070377, 220.787482)"><g><path d="M 6.484375 -4.703125 C 5.492188 -3.878906 4.519531 -3.515625 3.5625 -3.609375 C 2.601562 -3.703125 1.71875 -4.242188 0.90625 -5.234375 L -14.015625 -23.328125 C -14.828125 -24.316406 -15.1875 -25.273438 -15.09375 -26.203125 C -15.007812 -27.140625 -14.503906 -27.988281 -13.578125 -28.75 C -12.648438 -29.507812 -11.71875 -29.84375 -10.78125 -29.75 C -9.851562 -29.664062 -8.984375 -29.128906 -8.171875 -28.140625 L -5.6875 -25.140625 L -6.171875 -24.75 C -7.296875 -27.019531 -7.613281 -29.191406 -7.125 -31.265625 C -6.632812 -33.335938 -5.378906 -35.363281 -3.359375 -37.34375 C -2.742188 -37.957031 -2.070312 -38.226562 -1.34375 -38.15625 C -0.625 -38.082031 0.101562 -37.660156 0.84375 -36.890625 C 1.582031 -36.140625 1.9375 -35.335938 1.90625 -34.484375 C 1.882812 -33.640625 1.484375 -32.816406 0.703125 -32.015625 L -0.265625 -31.046875 C -2.054688 -29.253906 -3.03125 -27.445312 -3.1875 -25.625 C -3.351562 -23.800781 -2.6875 -21.984375 -1.1875 -20.171875 L 6.984375 -10.25 C 7.796875 -9.257812 8.160156 -8.289062 8.078125 -7.34375 C 8.003906 -6.394531 7.472656 -5.515625 6.484375 -4.703125 Z M 6.484375 -4.703125 "/></g></g></g><g fill="#517a92" fill-opacity="1"><g transform="translate(129.547008, 202.193658)"><g><path d="M 15.359375 -9.140625 C 12.722656 -7.441406 10.082031 -6.503906 7.4375 -6.328125 C 4.789062 -6.148438 2.285156 -6.710938 -0.078125 -8.015625 C -2.441406 -9.328125 -4.5 -11.34375 -6.25 -14.0625 C -7.5625 -16.113281 -8.429688 -18.140625 -8.859375 -20.140625 C -9.296875 -22.148438 -9.316406 -24.109375 -8.921875 -26.015625 C -8.523438 -27.921875 -7.722656 -29.691406 -6.515625 -31.328125 C -5.304688 -32.960938 -3.710938 -34.421875 -1.734375 -35.703125 C 0.910156 -37.398438 3.550781 -38.335938 6.1875 -38.515625 C 8.832031 -38.691406 11.332031 -38.132812 13.6875 -36.84375 C 16.039062 -35.550781 18.085938 -33.550781 19.828125 -30.84375 C 21.148438 -28.78125 22.03125 -26.738281 22.46875 -24.71875 C 22.914062 -22.695312 22.941406 -20.734375 22.546875 -18.828125 C 22.148438 -16.921875 21.347656 -15.148438 20.140625 -13.515625 C 18.941406 -11.878906 17.347656 -10.421875 15.359375 -9.140625 Z M 12.171875 -14.09375 C 13.460938 -14.914062 14.390625 -15.957031 14.953125 -17.21875 C 15.523438 -18.476562 15.679688 -19.898438 15.421875 -21.484375 C 15.160156 -23.066406 14.4375 -24.78125 13.25 -26.625 C 11.46875 -29.40625 9.539062 -31.101562 7.46875 -31.71875 C 5.40625 -32.332031 3.398438 -32.007812 1.453125 -30.75 C 0.160156 -29.914062 -0.769531 -28.878906 -1.34375 -27.640625 C -1.925781 -26.410156 -2.085938 -25.003906 -1.828125 -23.421875 C -1.578125 -21.835938 -0.863281 -20.125 0.3125 -18.28125 C 2.082031 -15.53125 4.015625 -13.832031 6.109375 -13.1875 C 8.203125 -12.539062 10.222656 -12.84375 12.171875 -14.09375 Z M 12.171875 -14.09375 "/></g></g></g><g fill="#517a92" fill-opacity="1"><g transform="translate(163.461732, 180.649749)"><g><path d="M 21.4375 3.046875 C 19.414062 3.984375 17.367188 4.703125 15.296875 5.203125 C 13.234375 5.710938 11.25 5.929688 9.34375 5.859375 C 8.457031 5.816406 7.769531 5.585938 7.28125 5.171875 C 6.789062 4.765625 6.46875 4.265625 6.3125 3.671875 C 6.15625 3.085938 6.15625 2.503906 6.3125 1.921875 C 6.476562 1.347656 6.789062 0.863281 7.25 0.46875 C 7.707031 0.0703125 8.285156 -0.101562 8.984375 -0.0625 C 11.023438 0 12.84375 -0.191406 14.4375 -0.640625 C 16.03125 -1.085938 17.359375 -1.554688 18.421875 -2.046875 C 20.929688 -3.203125 22.53125 -4.679688 23.21875 -6.484375 C 23.90625 -8.285156 23.691406 -10.382812 22.578125 -12.78125 L 20.234375 -17.84375 L 20.734375 -18.078125 C 21.066406 -15.910156 20.609375 -13.84375 19.359375 -11.875 C 18.109375 -9.914062 16.351562 -8.410156 14.09375 -7.359375 C 11.613281 -6.210938 9.1875 -5.78125 6.8125 -6.0625 C 4.445312 -6.351562 2.28125 -7.296875 0.3125 -8.890625 C -1.65625 -10.492188 -3.269531 -12.660156 -4.53125 -15.390625 C -5.488281 -17.460938 -6.0625 -19.46875 -6.25 -21.40625 C -6.445312 -23.34375 -6.289062 -25.15625 -5.78125 -26.84375 C -5.269531 -28.539062 -4.40625 -30.070312 -3.1875 -31.4375 C -1.96875 -32.800781 -0.441406 -33.90625 1.390625 -34.75 C 3.710938 -35.832031 6.015625 -36.207031 8.296875 -35.875 C 10.578125 -35.539062 12.410156 -34.550781 13.796875 -32.90625 L 13.890625 -31.25 L 12.046875 -35.25 C 11.503906 -36.414062 11.398438 -37.441406 11.734375 -38.328125 C 12.078125 -39.210938 12.789062 -39.90625 13.875 -40.40625 C 15 -40.925781 16.003906 -41.023438 16.890625 -40.703125 C 17.773438 -40.390625 18.488281 -39.648438 19.03125 -38.484375 L 29.0625 -16.828125 C 31.132812 -12.359375 31.507812 -8.453125 30.1875 -5.109375 C 28.863281 -1.765625 25.945312 0.953125 21.4375 3.046875 Z M 13.515625 -13.59375 C 14.984375 -14.269531 16.082031 -15.1875 16.8125 -16.34375 C 17.550781 -17.507812 17.921875 -18.859375 17.921875 -20.390625 C 17.929688 -21.921875 17.539062 -23.546875 16.75 -25.265625 C 15.550781 -27.847656 13.96875 -29.582031 12 -30.46875 C 10.039062 -31.363281 7.96875 -31.304688 5.78125 -30.296875 C 4.320312 -29.617188 3.222656 -28.695312 2.484375 -27.53125 C 1.742188 -26.375 1.367188 -25.039062 1.359375 -23.53125 C 1.359375 -22.03125 1.757812 -20.414062 2.5625 -18.6875 C 3.757812 -16.09375 5.34375 -14.34375 7.3125 -13.4375 C 9.28125 -12.53125 11.347656 -12.582031 13.515625 -13.59375 Z M 13.515625 -13.59375 "/></g></g></g><g fill="#517a92" fill-opacity="1"><g transform="translate(202.059019, 163.512635)"><g><path d="M 7.765625 -2 C 6.546875 -1.601562 5.503906 -1.625 4.640625 -2.0625 C 3.773438 -2.5 3.144531 -3.328125 2.75 -4.546875 L -4.484375 -26.859375 C -4.878906 -28.078125 -4.863281 -29.101562 -4.4375 -29.9375 C -4.007812 -30.769531 -3.222656 -31.367188 -2.078125 -31.734375 C -0.941406 -32.109375 0.0390625 -32.082031 0.875 -31.65625 C 1.707031 -31.226562 2.320312 -30.40625 2.71875 -29.1875 L 3.921875 -25.46875 L 3.34375 -25.28125 C 3.125 -27.8125 3.625 -29.945312 4.84375 -31.6875 C 6.0625 -33.4375 7.96875 -34.863281 10.5625 -35.96875 C 11.363281 -36.320312 12.085938 -36.332031 12.734375 -36 C 13.378906 -35.664062 13.910156 -35.003906 14.328125 -34.015625 C 14.722656 -33.046875 14.753906 -32.171875 14.421875 -31.390625 C 14.085938 -30.609375 13.414062 -29.984375 12.40625 -29.515625 L 11.140625 -28.984375 C 8.804688 -27.972656 7.234375 -26.644531 6.421875 -25 C 5.609375 -23.363281 5.566406 -21.425781 6.296875 -19.1875 L 10.25 -6.96875 C 10.644531 -5.75 10.632812 -4.710938 10.21875 -3.859375 C 9.800781 -3.015625 8.984375 -2.394531 7.765625 -2 Z M 7.765625 -2 "/></g></g></g><g fill="#517a92" fill-opacity="1"><g transform="translate(229.864752, 154.501413)"><g><path d="M 18.734375 -3.15625 C 15.359375 -2.476562 12.328125 -2.519531 9.640625 -3.28125 C 6.960938 -4.039062 4.726562 -5.441406 2.9375 -7.484375 C 1.15625 -9.535156 -0.0507812 -12.144531 -0.6875 -15.3125 C -1.3125 -18.382812 -1.21875 -21.207031 -0.40625 -23.78125 C 0.394531 -26.351562 1.785156 -28.523438 3.765625 -30.296875 C 5.753906 -32.066406 8.191406 -33.242188 11.078125 -33.828125 C 13.171875 -34.253906 15.125 -34.289062 16.9375 -33.9375 C 18.757812 -33.582031 20.398438 -32.878906 21.859375 -31.828125 C 23.328125 -30.773438 24.5625 -29.390625 25.5625 -27.671875 C 26.570312 -25.960938 27.3125 -23.953125 27.78125 -21.640625 C 27.925781 -20.910156 27.785156 -20.300781 27.359375 -19.8125 C 26.929688 -19.332031 26.25 -19 25.3125 -18.8125 L 5.796875 -14.859375 L 4.90625 -19.21875 L 21.984375 -22.671875 L 21.203125 -21.5625 C 20.828125 -23.425781 20.238281 -24.929688 19.4375 -26.078125 C 18.632812 -27.234375 17.644531 -28.039062 16.46875 -28.5 C 15.300781 -28.957031 13.945312 -29.03125 12.40625 -28.71875 C 10.71875 -28.375 9.347656 -27.679688 8.296875 -26.640625 C 7.253906 -25.609375 6.566406 -24.3125 6.234375 -22.75 C 5.898438 -21.1875 5.9375 -19.410156 6.34375 -17.421875 L 6.421875 -17 C 7.097656 -13.675781 8.382812 -11.347656 10.28125 -10.015625 C 12.175781 -8.691406 14.644531 -8.335938 17.6875 -8.953125 C 18.738281 -9.160156 19.894531 -9.53125 21.15625 -10.0625 C 22.414062 -10.601562 23.566406 -11.316406 24.609375 -12.203125 C 25.367188 -12.859375 26.078125 -13.21875 26.734375 -13.28125 C 27.398438 -13.351562 27.960938 -13.226562 28.421875 -12.90625 C 28.890625 -12.582031 29.222656 -12.132812 29.421875 -11.5625 C 29.628906 -10.988281 29.640625 -10.367188 29.453125 -9.703125 C 29.265625 -9.035156 28.859375 -8.398438 28.234375 -7.796875 C 26.992188 -6.628906 25.492188 -5.644531 23.734375 -4.84375 C 21.984375 -4.039062 20.316406 -3.476562 18.734375 -3.15625 Z M 18.734375 -3.15625 "/></g></g></g><g fill="#517a92" fill-opacity="1"><g transform="translate(267.513716, 147.276605)"><g><path d="M 15.140625 -0.53125 C 13.367188 -0.394531 11.476562 -0.4375 9.46875 -0.65625 C 7.46875 -0.882812 5.644531 -1.390625 4 -2.171875 C 3.300781 -2.535156 2.800781 -2.984375 2.5 -3.515625 C 2.195312 -4.054688 2.054688 -4.601562 2.078125 -5.15625 C 2.097656 -5.71875 2.257812 -6.222656 2.5625 -6.671875 C 2.875 -7.117188 3.304688 -7.421875 3.859375 -7.578125 C 4.410156 -7.742188 5.03125 -7.691406 5.71875 -7.421875 C 7.425781 -6.753906 9.015625 -6.320312 10.484375 -6.125 C 11.953125 -5.925781 13.382812 -5.878906 14.78125 -5.984375 C 16.757812 -6.140625 18.207031 -6.59375 19.125 -7.34375 C 20.039062 -8.101562 20.457031 -9.035156 20.375 -10.140625 C 20.300781 -11.085938 19.925781 -11.796875 19.25 -12.265625 C 18.570312 -12.734375 17.585938 -13.039062 16.296875 -13.1875 L 10.015625 -13.90625 C 7.421875 -14.1875 5.394531 -14.96875 3.9375 -16.25 C 2.488281 -17.53125 1.679688 -19.265625 1.515625 -21.453125 C 1.359375 -23.421875 1.773438 -25.171875 2.765625 -26.703125 C 3.753906 -28.242188 5.1875 -29.476562 7.0625 -30.40625 C 8.945312 -31.332031 11.144531 -31.894531 13.65625 -32.09375 C 15.46875 -32.226562 17.179688 -32.160156 18.796875 -31.890625 C 20.421875 -31.617188 22.003906 -31.128906 23.546875 -30.421875 C 24.191406 -30.140625 24.648438 -29.738281 24.921875 -29.21875 C 25.191406 -28.695312 25.285156 -28.148438 25.203125 -27.578125 C 25.117188 -27.015625 24.90625 -26.503906 24.5625 -26.046875 C 24.21875 -25.597656 23.769531 -25.300781 23.21875 -25.15625 C 22.675781 -25.007812 22.046875 -25.070312 21.328125 -25.34375 C 20.003906 -25.894531 18.738281 -26.269531 17.53125 -26.46875 C 16.332031 -26.675781 15.195312 -26.738281 14.125 -26.65625 C 12.113281 -26.5 10.648438 -26.035156 9.734375 -25.265625 C 8.816406 -24.492188 8.398438 -23.53125 8.484375 -22.375 C 8.554688 -21.5 8.898438 -20.796875 9.515625 -20.265625 C 10.140625 -19.734375 11.054688 -19.410156 12.265625 -19.296875 L 18.53125 -18.59375 C 21.257812 -18.300781 23.363281 -17.546875 24.84375 -16.328125 C 26.320312 -15.117188 27.148438 -13.398438 27.328125 -11.171875 C 27.554688 -8.160156 26.5625 -5.707031 24.34375 -3.8125 C 22.125 -1.925781 19.054688 -0.832031 15.140625 -0.53125 Z M 15.140625 -0.53125 "/></g></g></g><g fill="#517a92" fill-opacity="1"><g transform="translate(302.523725, 144.879472)"><g><path d="M 15.09375 1.25 C 13.3125 1.175781 11.4375 0.910156 9.46875 0.453125 C 7.507812 -0.00390625 5.765625 -0.71875 4.234375 -1.6875 C 3.585938 -2.132812 3.140625 -2.640625 2.890625 -3.203125 C 2.648438 -3.773438 2.570312 -4.335938 2.65625 -4.890625 C 2.75 -5.441406 2.976562 -5.914062 3.34375 -6.3125 C 3.707031 -6.71875 4.171875 -6.96875 4.734375 -7.0625 C 5.296875 -7.164062 5.90625 -7.039062 6.5625 -6.6875 C 8.175781 -5.832031 9.695312 -5.21875 11.125 -4.84375 C 12.5625 -4.476562 13.984375 -4.269531 15.390625 -4.21875 C 17.367188 -4.132812 18.859375 -4.410156 19.859375 -5.046875 C 20.859375 -5.691406 21.382812 -6.570312 21.4375 -7.6875 C 21.476562 -8.625 21.1875 -9.363281 20.5625 -9.90625 C 19.945312 -10.445312 19.003906 -10.867188 17.734375 -11.171875 L 11.578125 -12.625 C 9.046875 -13.21875 7.132812 -14.234375 5.84375 -15.671875 C 4.550781 -17.117188 3.953125 -18.941406 4.046875 -21.140625 C 4.128906 -23.117188 4.75 -24.804688 5.90625 -26.203125 C 7.0625 -27.597656 8.625 -28.644531 10.59375 -29.34375 C 12.5625 -30.050781 14.804688 -30.351562 17.328125 -30.25 C 19.148438 -30.175781 20.847656 -29.910156 22.421875 -29.453125 C 24.003906 -28.992188 25.523438 -28.316406 26.984375 -27.421875 C 27.585938 -27.066406 27.988281 -26.617188 28.1875 -26.078125 C 28.382812 -25.535156 28.410156 -24.988281 28.265625 -24.4375 C 28.117188 -23.882812 27.847656 -23.398438 27.453125 -22.984375 C 27.066406 -22.566406 26.59375 -22.316406 26.03125 -22.234375 C 25.476562 -22.148438 24.859375 -22.289062 24.171875 -22.65625 C 22.921875 -23.363281 21.707031 -23.890625 20.53125 -24.234375 C 19.363281 -24.578125 18.242188 -24.769531 17.171875 -24.8125 C 15.148438 -24.894531 13.632812 -24.601562 12.625 -23.9375 C 11.625 -23.28125 11.101562 -22.375 11.0625 -21.21875 C 11.019531 -20.34375 11.273438 -19.601562 11.828125 -19 C 12.390625 -18.394531 13.265625 -17.96875 14.453125 -17.71875 L 20.609375 -16.28125 C 23.273438 -15.664062 25.269531 -14.664062 26.59375 -13.28125 C 27.914062 -11.90625 28.53125 -10.101562 28.4375 -7.875 C 28.3125 -4.863281 27.035156 -2.546875 24.609375 -0.921875 C 22.191406 0.691406 19.019531 1.414062 15.09375 1.25 Z M 15.09375 1.25 "/></g></g></g></svg>