<svg xmlns="http://www.w3.org/2000/svg" xmlns:xlink="http://www.w3.org/1999/xlink" width="500" zoomAndPan="magnify" viewBox="0 0 375 374.999991" height="500" preserveAspectRatio="xMidYMid meet" version="1.0"><defs><clipPath id="b3598b8c5c"><path d="M 129 46.875 L 246 46.875 L 246 120 L 129 120 Z M 129 46.875 " clip-rule="nonzero"/></clipPath><clipPath id="b291967aec"><path d="M 46.875 105 L 328.125 105 L 328.125 328.125 L 46.875 328.125 Z M 46.875 105 " clip-rule="nonzero"/></clipPath><clipPath id="b7df28a51b"><path d="M 48 245 L 327 245 L 327 328.125 L 48 328.125 Z M 48 245 " clip-rule="nonzero"/></clipPath></defs><g clip-path="url(#b3598b8c5c)"><path fill="#e4263f" d="M 226.292969 66.242188 C 225.65625 66.242188 225.023438 66.273438 224.390625 66.335938 C 223.757812 66.398438 223.132812 66.488281 222.507812 66.613281 C 221.886719 66.738281 221.269531 66.890625 220.664062 67.078125 C 220.054688 67.261719 219.457031 67.476562 218.871094 67.71875 C 218.285156 67.960938 217.710938 68.230469 217.148438 68.53125 C 216.589844 68.832031 216.046875 69.15625 215.515625 69.511719 C 214.988281 69.863281 214.480469 70.242188 213.988281 70.644531 C 213.496094 71.046875 213.027344 71.472656 212.578125 71.921875 C 212.128906 72.371094 211.703125 72.839844 211.300781 73.332031 C 210.894531 73.824219 210.519531 74.332031 210.164062 74.863281 C 209.8125 75.390625 209.484375 75.933594 209.1875 76.496094 C 208.886719 77.054688 208.617188 77.628906 208.371094 78.214844 C 208.128906 78.800781 207.917969 79.398438 207.730469 80.007812 C 207.546875 80.613281 207.394531 81.230469 207.269531 81.855469 C 207.144531 82.476562 207.050781 83.105469 206.988281 83.738281 C 206.925781 84.367188 206.898438 85.003906 206.898438 85.636719 L 206.898438 66.242188 C 206.898438 65.605469 206.867188 64.972656 206.804688 64.339844 C 206.742188 63.707031 206.648438 63.082031 206.523438 62.457031 C 206.398438 61.835938 206.246094 61.21875 206.0625 60.609375 C 205.875 60.003906 205.664062 59.40625 205.421875 58.820312 C 205.175781 58.230469 204.90625 57.65625 204.605469 57.097656 C 204.308594 56.539062 203.980469 55.992188 203.628906 55.464844 C 203.273438 54.9375 202.898438 54.425781 202.492188 53.9375 C 202.089844 53.445312 201.664062 52.976562 201.214844 52.527344 C 200.765625 52.078125 200.296875 51.652344 199.804688 51.246094 C 199.3125 50.84375 198.804688 50.464844 198.277344 50.113281 C 197.746094 49.761719 197.203125 49.433594 196.644531 49.136719 C 196.082031 48.835938 195.507812 48.5625 194.921875 48.320312 C 194.335938 48.078125 193.738281 47.863281 193.128906 47.679688 C 192.523438 47.496094 191.90625 47.339844 191.285156 47.21875 C 190.660156 47.09375 190.035156 47 189.402344 46.9375 C 188.769531 46.875 188.136719 46.84375 187.5 46.84375 C 186.863281 46.84375 186.230469 46.875 185.597656 46.9375 C 184.964844 47 184.339844 47.09375 183.714844 47.21875 C 183.09375 47.339844 182.476562 47.496094 181.871094 47.679688 C 181.261719 47.863281 180.664062 48.078125 180.078125 48.320312 C 179.492188 48.5625 178.917969 48.835938 178.355469 49.136719 C 177.796875 49.433594 177.253906 49.761719 176.722656 50.113281 C 176.195312 50.464844 175.6875 50.84375 175.195312 51.246094 C 174.703125 51.652344 174.234375 52.078125 173.785156 52.527344 C 173.335938 52.976562 172.910156 53.445312 172.507812 53.9375 C 172.101562 54.425781 171.726562 54.9375 171.371094 55.464844 C 171.019531 55.992188 170.691406 56.539062 170.394531 57.097656 C 170.09375 57.65625 169.824219 58.230469 169.578125 58.820312 C 169.335938 59.40625 169.125 60.003906 168.9375 60.609375 C 168.753906 61.21875 168.601562 61.835938 168.476562 62.457031 C 168.351562 63.082031 168.257812 63.707031 168.195312 64.339844 C 168.132812 64.972656 168.101562 65.605469 168.101562 66.242188 L 168.101562 85.636719 C 168.101562 85.003906 168.074219 84.367188 168.011719 83.738281 C 167.949219 83.105469 167.855469 82.476562 167.730469 81.855469 C 167.605469 81.230469 167.453125 80.613281 167.269531 80.007812 C 167.082031 79.398438 166.871094 78.800781 166.625 78.214844 C 166.382812 77.628906 166.113281 77.054688 165.8125 76.496094 C 165.511719 75.933594 165.1875 75.390625 164.835938 74.863281 C 164.480469 74.332031 164.105469 73.824219 163.699219 73.332031 C 163.296875 72.839844 162.871094 72.371094 162.421875 71.921875 C 161.972656 71.472656 161.503906 71.046875 161.011719 70.644531 C 160.519531 70.242188 160.011719 69.863281 159.484375 69.511719 C 158.953125 69.15625 158.410156 68.832031 157.851562 68.53125 C 157.289062 68.230469 156.714844 67.960938 156.128906 67.71875 C 155.542969 67.472656 154.945312 67.261719 154.335938 67.078125 C 153.730469 66.890625 153.113281 66.738281 152.492188 66.613281 C 151.867188 66.488281 151.242188 66.398438 150.609375 66.335938 C 149.976562 66.273438 149.34375 66.242188 148.707031 66.242188 C 148.070312 66.242188 147.4375 66.273438 146.804688 66.335938 C 146.171875 66.398438 145.546875 66.488281 144.921875 66.613281 C 144.300781 66.738281 143.683594 66.890625 143.078125 67.078125 C 142.46875 67.261719 141.871094 67.476562 141.285156 67.71875 C 140.695312 67.960938 140.125 68.230469 139.5625 68.53125 C 139.003906 68.832031 138.457031 69.15625 137.929688 69.511719 C 137.402344 69.863281 136.894531 70.242188 136.402344 70.644531 C 135.910156 71.046875 135.441406 71.472656 134.992188 71.921875 C 134.542969 72.371094 134.117188 72.839844 133.714844 73.332031 C 133.308594 73.824219 132.933594 74.332031 132.578125 74.863281 C 132.226562 75.390625 131.898438 75.933594 131.601562 76.496094 C 131.300781 77.054688 131.03125 77.628906 130.785156 78.214844 C 130.542969 78.800781 130.328125 79.398438 130.144531 80.007812 C 129.960938 80.613281 129.808594 81.230469 129.683594 81.855469 C 129.558594 82.476562 129.464844 83.105469 129.402344 83.738281 C 129.339844 84.367188 129.308594 85.003906 129.308594 85.636719 L 129.308594 119.582031 L 245.691406 119.582031 L 245.691406 85.636719 C 245.691406 85.003906 245.660156 84.367188 245.597656 83.738281 C 245.535156 83.105469 245.441406 82.476562 245.316406 81.855469 C 245.191406 81.230469 245.039062 80.613281 244.855469 80.007812 C 244.671875 79.398438 244.457031 78.800781 244.214844 78.214844 C 243.96875 77.628906 243.699219 77.054688 243.398438 76.496094 C 243.101562 75.933594 242.773438 75.390625 242.421875 74.863281 C 242.066406 74.332031 241.691406 73.824219 241.285156 73.332031 C 240.882812 72.839844 240.457031 72.371094 240.007812 71.921875 C 239.558594 71.472656 239.089844 71.046875 238.597656 70.644531 C 238.105469 70.242188 237.597656 69.863281 237.070312 69.511719 C 236.542969 69.15625 235.996094 68.832031 235.4375 68.53125 C 234.875 68.230469 234.300781 67.960938 233.714844 67.71875 C 233.128906 67.472656 232.53125 67.261719 231.921875 67.078125 C 231.316406 66.890625 230.699219 66.738281 230.078125 66.613281 C 229.453125 66.488281 228.828125 66.398438 228.195312 66.335938 C 227.5625 66.273438 226.929688 66.242188 226.292969 66.242188 Z M 226.292969 66.242188 " fill-opacity="1" fill-rule="nonzero"/></g><path fill="#ab1c2f" d="M 211.746094 85.636719 L 211.746094 119.582031 L 202.046875 119.582031 L 202.046875 85.636719 C 201.96875 79.371094 211.820312 79.316406 211.746094 85.636719 Z M 211.746094 85.636719 " fill-opacity="1" fill-rule="nonzero"/><path fill="#ab1c2f" d="M 172.953125 85.636719 L 172.953125 119.582031 L 163.253906 119.582031 L 163.253906 85.636719 C 163.175781 79.371094 173.023438 79.316406 172.953125 85.636719 Z M 172.953125 85.636719 " fill-opacity="1" fill-rule="nonzero"/><g clip-path="url(#b291967aec)"><path fill="#feb944" d="M 187.5 105.035156 C 109.835938 105.035156 46.875 159.585938 46.875 226.941406 C 46.875 269.0625 71.527344 306.195312 109 328.09375 L 265.988281 328.09375 C 303.472656 306.195312 328.125 269.0625 328.125 226.941406 C 328.125 159.585938 265.164062 105.035156 187.5 105.035156 Z M 187.5 105.035156 " fill-opacity="1" fill-rule="nonzero"/></g><g clip-path="url(#b7df28a51b)"><path fill="#d7e6ef" d="M 326.476562 245.660156 C 320.367188 279.941406 297.816406 309.472656 266.007812 328.09375 L 109.015625 328.09375 C 77.183594 309.472656 54.632812 279.941406 48.523438 245.660156 Z M 326.476562 245.660156 " fill-opacity="1" fill-rule="nonzero"/></g><path fill="#e4263f" d="M 187.5 153.429688 C 171.429688 153.429688 158.40625 161.070312 158.40625 170.496094 C 158.40625 179.921875 171.429688 187.566406 187.5 187.566406 C 203.570312 187.566406 216.59375 179.921875 216.59375 170.496094 C 216.59375 161.070312 203.570312 153.429688 187.5 153.429688 Z M 187.5 153.429688 " fill-opacity="1" fill-rule="nonzero"/><path fill="#3c323d" d="M 260.238281 155.949219 C 260.238281 156.746094 260.160156 157.535156 260.003906 158.316406 C 259.847656 159.097656 259.617188 159.855469 259.3125 160.589844 C 259.007812 161.324219 258.636719 162.023438 258.195312 162.683594 C 257.75 163.347656 257.25 163.960938 256.6875 164.523438 C 256.125 165.085938 255.511719 165.585938 254.847656 166.03125 C 254.1875 166.472656 253.488281 166.84375 252.753906 167.148438 C 252.019531 167.453125 251.261719 167.683594 250.480469 167.839844 C 249.699219 167.996094 248.910156 168.074219 248.113281 168.074219 C 247.316406 168.074219 246.53125 167.996094 245.75 167.839844 C 244.96875 167.683594 244.210938 167.453125 243.476562 167.148438 C 242.738281 166.84375 242.039062 166.472656 241.378906 166.03125 C 240.71875 165.585938 240.105469 165.085938 239.542969 164.523438 C 238.980469 163.960938 238.476562 163.347656 238.035156 162.683594 C 237.59375 162.023438 237.21875 161.324219 236.914062 160.589844 C 236.609375 159.855469 236.378906 159.097656 236.222656 158.316406 C 236.070312 157.535156 235.992188 156.746094 235.992188 155.949219 C 235.992188 155.152344 236.070312 154.367188 236.222656 153.585938 C 236.378906 152.804688 236.609375 152.046875 236.914062 151.3125 C 237.21875 150.574219 237.59375 149.878906 238.035156 149.214844 C 238.476562 148.554688 238.980469 147.941406 239.542969 147.378906 C 240.105469 146.816406 240.71875 146.3125 241.378906 145.871094 C 242.039062 145.429688 242.738281 145.054688 243.476562 144.75 C 244.210938 144.445312 244.96875 144.214844 245.75 144.058594 C 246.53125 143.90625 247.316406 143.828125 248.113281 143.828125 C 248.910156 143.828125 249.699219 143.90625 250.480469 144.058594 C 251.261719 144.214844 252.019531 144.445312 252.753906 144.75 C 253.488281 145.054688 254.1875 145.429688 254.847656 145.871094 C 255.511719 146.3125 256.125 146.816406 256.6875 147.378906 C 257.25 147.941406 257.75 148.554688 258.195312 149.214844 C 258.636719 149.878906 259.007812 150.574219 259.3125 151.3125 C 259.617188 152.046875 259.847656 152.804688 260.003906 153.585938 C 260.160156 154.367188 260.238281 155.152344 260.238281 155.949219 Z M 260.238281 155.949219 " fill-opacity="1" fill-rule="nonzero"/><path fill="#3c323d" d="M 139.007812 155.949219 C 139.007812 156.746094 138.929688 157.535156 138.777344 158.316406 C 138.621094 159.097656 138.390625 159.855469 138.085938 160.589844 C 137.78125 161.324219 137.40625 162.023438 136.964844 162.683594 C 136.523438 163.347656 136.019531 163.960938 135.457031 164.523438 C 134.894531 165.085938 134.28125 165.585938 133.621094 166.03125 C 132.960938 166.472656 132.261719 166.84375 131.523438 167.148438 C 130.789062 167.453125 130.03125 167.683594 129.25 167.839844 C 128.46875 167.996094 127.683594 168.074219 126.886719 168.074219 C 126.089844 168.074219 125.300781 167.996094 124.519531 167.839844 C 123.738281 167.683594 122.980469 167.453125 122.246094 167.148438 C 121.511719 166.84375 120.8125 166.472656 120.152344 166.03125 C 119.488281 165.585938 118.875 165.085938 118.3125 164.523438 C 117.75 163.960938 117.25 163.347656 116.804688 162.683594 C 116.363281 162.023438 115.992188 161.324219 115.6875 160.589844 C 115.382812 159.855469 115.152344 159.097656 114.996094 158.316406 C 114.839844 157.535156 114.761719 156.746094 114.761719 155.949219 C 114.761719 155.152344 114.839844 154.367188 114.996094 153.585938 C 115.152344 152.804688 115.382812 152.046875 115.6875 151.3125 C 115.992188 150.574219 116.363281 149.878906 116.804688 149.214844 C 117.25 148.554688 117.75 147.941406 118.3125 147.378906 C 118.875 146.816406 119.488281 146.3125 120.152344 145.871094 C 120.8125 145.429688 121.511719 145.054688 122.246094 144.75 C 122.980469 144.445312 123.738281 144.214844 124.519531 144.058594 C 125.300781 143.90625 126.089844 143.828125 126.886719 143.828125 C 127.683594 143.828125 128.46875 143.90625 129.25 144.058594 C 130.03125 144.214844 130.789062 144.445312 131.523438 144.75 C 132.261719 145.054688 132.960938 145.429688 133.621094 145.871094 C 134.28125 146.3125 134.894531 146.816406 135.457031 147.378906 C 136.019531 147.941406 136.523438 148.554688 136.964844 149.214844 C 137.40625 149.878906 137.78125 150.574219 138.085938 151.3125 C 138.390625 152.046875 138.621094 152.804688 138.777344 153.585938 C 138.929688 154.367188 139.007812 155.152344 139.007812 155.949219 Z M 139.007812 155.949219 " fill-opacity="1" fill-rule="nonzero"/><path fill="#f5f9ff" d="M 236.875 129.605469 C 236.875 130.003906 236.835938 130.398438 236.761719 130.789062 C 236.683594 131.179688 236.566406 131.558594 236.414062 131.925781 C 236.261719 132.292969 236.074219 132.644531 235.855469 132.976562 C 235.632812 133.304688 235.382812 133.613281 235.101562 133.894531 C 234.820312 134.175781 234.511719 134.425781 234.183594 134.648438 C 233.851562 134.867188 233.503906 135.054688 233.132812 135.207031 C 232.765625 135.359375 232.386719 135.476562 231.996094 135.550781 C 231.605469 135.628906 231.210938 135.667969 230.816406 135.667969 C 230.417969 135.667969 230.023438 135.628906 229.632812 135.550781 C 229.242188 135.476562 228.863281 135.359375 228.496094 135.207031 C 228.128906 135.054688 227.777344 134.867188 227.449219 134.648438 C 227.117188 134.425781 226.808594 134.175781 226.527344 133.894531 C 226.246094 133.613281 225.996094 133.304688 225.773438 132.976562 C 225.554688 132.644531 225.367188 132.292969 225.214844 131.925781 C 225.0625 131.558594 224.949219 131.179688 224.871094 130.789062 C 224.792969 130.398438 224.753906 130.003906 224.753906 129.605469 C 224.753906 129.210938 224.792969 128.816406 224.871094 128.425781 C 224.949219 128.035156 225.0625 127.65625 225.214844 127.289062 C 225.367188 126.921875 225.554688 126.570312 225.773438 126.238281 C 225.996094 125.910156 226.246094 125.601562 226.527344 125.320312 C 226.808594 125.039062 227.117188 124.789062 227.449219 124.566406 C 227.777344 124.347656 228.128906 124.160156 228.496094 124.007812 C 228.863281 123.855469 229.242188 123.738281 229.632812 123.664062 C 230.023438 123.585938 230.417969 123.546875 230.816406 123.546875 C 231.210938 123.546875 231.605469 123.585938 231.996094 123.664062 C 232.386719 123.738281 232.765625 123.855469 233.132812 124.007812 C 233.503906 124.160156 233.851562 124.347656 234.183594 124.566406 C 234.511719 124.789062 234.820312 125.039062 235.101562 125.320312 C 235.382812 125.601562 235.632812 125.910156 235.855469 126.238281 C 236.074219 126.570312 236.261719 126.921875 236.414062 127.289062 C 236.566406 127.65625 236.683594 128.035156 236.761719 128.425781 C 236.835938 128.816406 236.875 129.210938 236.875 129.605469 Z M 236.875 129.605469 " fill-opacity="1" fill-rule="nonzero"/><path fill="#f5f9ff" d="M 218.691406 138.699219 C 218.691406 139.101562 218.613281 139.488281 218.460938 139.859375 C 218.308594 140.230469 218.089844 140.558594 217.804688 140.84375 C 217.519531 141.125 217.191406 141.34375 216.820312 141.5 C 216.449219 141.652344 216.0625 141.730469 215.660156 141.730469 C 215.257812 141.730469 214.871094 141.652344 214.5 141.5 C 214.128906 141.34375 213.800781 141.125 213.519531 140.84375 C 213.234375 140.558594 213.015625 140.230469 212.859375 139.859375 C 212.707031 139.488281 212.628906 139.101562 212.628906 138.699219 C 212.628906 138.296875 212.707031 137.910156 212.859375 137.539062 C 213.015625 137.167969 213.234375 136.839844 213.519531 136.554688 C 213.800781 136.273438 214.128906 136.054688 214.5 135.898438 C 214.871094 135.746094 215.257812 135.667969 215.660156 135.667969 C 216.0625 135.667969 216.449219 135.746094 216.820312 135.898438 C 217.191406 136.054688 217.519531 136.273438 217.804688 136.554688 C 218.089844 136.839844 218.308594 137.167969 218.460938 137.539062 C 218.613281 137.910156 218.691406 138.296875 218.691406 138.699219 Z M 218.691406 138.699219 " fill-opacity="1" fill-rule="nonzero"/><path fill="#3c323d" d="M 192.347656 245.660156 L 192.347656 274.753906 C 192.347656 275.074219 192.316406 275.386719 192.257812 275.699219 C 192.195312 276.011719 192.101562 276.316406 191.980469 276.609375 C 191.859375 276.902344 191.707031 277.183594 191.53125 277.449219 C 191.355469 277.714844 191.152344 277.957031 190.929688 278.183594 C 190.703125 278.40625 190.457031 278.609375 190.195312 278.785156 C 189.929688 278.964844 189.648438 279.113281 189.355469 279.234375 C 189.0625 279.355469 188.757812 279.449219 188.445312 279.511719 C 188.132812 279.570312 187.820312 279.601562 187.5 279.601562 C 187.179688 279.601562 186.867188 279.570312 186.554688 279.511719 C 186.242188 279.449219 185.9375 279.355469 185.644531 279.234375 C 185.351562 279.113281 185.070312 278.964844 184.804688 278.785156 C 184.542969 278.609375 184.296875 278.40625 184.070312 278.183594 C 183.847656 277.957031 183.644531 277.714844 183.46875 277.449219 C 183.292969 277.183594 183.140625 276.902344 183.019531 276.609375 C 182.898438 276.316406 182.804688 276.011719 182.742188 275.699219 C 182.683594 275.386719 182.652344 275.074219 182.652344 274.753906 L 182.652344 245.660156 Z M 192.347656 245.660156 " fill-opacity="1" fill-rule="nonzero"/><path fill="#3c323d" d="M 158.40625 245.660156 L 158.40625 260.207031 C 158.40625 260.523438 158.375 260.839844 158.3125 261.152344 C 158.25 261.464844 158.15625 261.769531 158.035156 262.0625 C 157.914062 262.355469 157.765625 262.636719 157.589844 262.902344 C 157.410156 263.164062 157.210938 263.410156 156.984375 263.636719 C 156.757812 263.859375 156.515625 264.0625 156.25 264.238281 C 155.984375 264.414062 155.707031 264.566406 155.410156 264.6875 C 155.117188 264.808594 154.8125 264.902344 154.503906 264.960938 C 154.191406 265.023438 153.875 265.054688 153.554688 265.054688 C 153.238281 265.054688 152.921875 265.023438 152.609375 264.960938 C 152.296875 264.902344 151.996094 264.808594 151.699219 264.6875 C 151.40625 264.566406 151.125 264.414062 150.863281 264.238281 C 150.597656 264.0625 150.351562 263.859375 150.128906 263.636719 C 149.902344 263.410156 149.699219 263.164062 149.523438 262.902344 C 149.347656 262.636719 149.199219 262.355469 149.074219 262.0625 C 148.953125 261.769531 148.863281 261.464844 148.800781 261.152344 C 148.738281 260.839844 148.707031 260.523438 148.707031 260.207031 L 148.707031 245.660156 Z M 158.40625 245.660156 " fill-opacity="1" fill-rule="nonzero"/><path fill="#3c323d" d="M 294.179688 245.660156 L 294.179688 260.207031 C 294.179688 260.523438 294.148438 260.839844 294.085938 261.152344 C 294.027344 261.464844 293.933594 261.769531 293.8125 262.0625 C 293.691406 262.355469 293.539062 262.636719 293.363281 262.902344 C 293.1875 263.164062 292.984375 263.410156 292.761719 263.636719 C 292.535156 263.859375 292.289062 264.0625 292.027344 264.238281 C 291.761719 264.414062 291.480469 264.566406 291.1875 264.6875 C 290.894531 264.808594 290.589844 264.902344 290.277344 264.960938 C 289.964844 265.023438 289.648438 265.054688 289.332031 265.054688 C 289.011719 265.054688 288.699219 265.023438 288.386719 264.960938 C 288.074219 264.902344 287.769531 264.808594 287.476562 264.6875 C 287.183594 264.566406 286.902344 264.414062 286.636719 264.238281 C 286.371094 264.0625 286.128906 263.859375 285.902344 263.636719 C 285.679688 263.410156 285.476562 263.164062 285.300781 262.902344 C 285.121094 262.636719 284.972656 262.355469 284.851562 262.0625 C 284.730469 261.769531 284.636719 261.464844 284.574219 261.152344 C 284.515625 260.839844 284.484375 260.523438 284.484375 260.207031 L 284.484375 245.660156 Z M 294.179688 245.660156 " fill-opacity="1" fill-rule="nonzero"/><path fill="#3c323d" d="M 90.515625 245.660156 L 90.515625 260.207031 C 90.515625 260.523438 90.484375 260.839844 90.425781 261.152344 C 90.363281 261.464844 90.269531 261.769531 90.148438 262.0625 C 90.027344 262.355469 89.875 262.636719 89.699219 262.902344 C 89.523438 263.164062 89.320312 263.410156 89.097656 263.636719 C 88.871094 263.859375 88.625 264.0625 88.363281 264.238281 C 88.097656 264.414062 87.816406 264.566406 87.523438 264.6875 C 87.230469 264.808594 86.925781 264.902344 86.613281 264.960938 C 86.300781 265.023438 85.988281 265.054688 85.667969 265.054688 C 85.351562 265.054688 85.035156 265.023438 84.722656 264.960938 C 84.410156 264.902344 84.105469 264.808594 83.8125 264.6875 C 83.519531 264.566406 83.238281 264.414062 82.972656 264.238281 C 82.710938 264.0625 82.464844 263.859375 82.238281 263.636719 C 82.015625 263.410156 81.8125 263.164062 81.636719 262.902344 C 81.460938 262.636719 81.308594 262.355469 81.1875 262.0625 C 81.066406 261.769531 80.972656 261.464844 80.914062 261.152344 C 80.851562 260.839844 80.820312 260.523438 80.820312 260.207031 L 80.820312 245.660156 Z M 90.515625 245.660156 " fill-opacity="1" fill-rule="nonzero"/><path fill="#3c323d" d="M 226.292969 245.660156 L 226.292969 260.207031 C 226.292969 260.523438 226.261719 260.839844 226.199219 261.152344 C 226.136719 261.464844 226.046875 261.769531 225.925781 262.0625 C 225.800781 262.355469 225.652344 262.636719 225.476562 262.902344 C 225.300781 263.164062 225.097656 263.410156 224.871094 263.636719 C 224.648438 263.859375 224.402344 264.0625 224.136719 264.238281 C 223.875 264.414062 223.59375 264.566406 223.300781 264.6875 C 223.003906 264.808594 222.703125 264.902344 222.390625 264.960938 C 222.078125 265.023438 221.761719 265.054688 221.445312 265.054688 C 221.125 265.054688 220.808594 265.023438 220.496094 264.960938 C 220.1875 264.902344 219.882812 264.808594 219.589844 264.6875 C 219.292969 264.566406 219.015625 264.414062 218.75 264.238281 C 218.484375 264.0625 218.238281 263.859375 218.015625 263.636719 C 217.789062 263.410156 217.589844 263.164062 217.410156 262.902344 C 217.234375 262.636719 217.085938 262.355469 216.964844 262.0625 C 216.84375 261.769531 216.75 261.464844 216.6875 261.152344 C 216.625 260.839844 216.59375 260.523438 216.59375 260.207031 L 216.59375 245.660156 Z M 226.292969 245.660156 " fill-opacity="1" fill-rule="nonzero"/><path fill="#3c323d" d="M 124.460938 245.660156 L 124.460938 274.753906 C 124.460938 275.074219 124.429688 275.386719 124.367188 275.699219 C 124.304688 276.011719 124.214844 276.316406 124.09375 276.609375 C 123.96875 276.902344 123.820312 277.183594 123.644531 277.449219 C 123.46875 277.714844 123.265625 277.957031 123.039062 278.183594 C 122.816406 278.40625 122.570312 278.609375 122.304688 278.785156 C 122.042969 278.964844 121.761719 279.113281 121.46875 279.234375 C 121.171875 279.355469 120.871094 279.449219 120.558594 279.511719 C 120.246094 279.570312 119.929688 279.601562 119.613281 279.601562 C 119.292969 279.601562 118.976562 279.570312 118.667969 279.511719 C 118.355469 279.449219 118.050781 279.355469 117.757812 279.234375 C 117.460938 279.113281 117.183594 278.964844 116.917969 278.785156 C 116.652344 278.609375 116.410156 278.40625 116.183594 278.183594 C 115.957031 277.957031 115.757812 277.714844 115.582031 277.449219 C 115.402344 277.183594 115.253906 276.902344 115.132812 276.609375 C 115.011719 276.316406 114.917969 276.011719 114.855469 275.699219 C 114.792969 275.386719 114.761719 275.074219 114.761719 274.753906 L 114.761719 245.660156 Z M 124.460938 245.660156 " fill-opacity="1" fill-rule="nonzero"/><path fill="#3c323d" d="M 260.238281 245.660156 L 260.238281 274.753906 C 260.238281 275.074219 260.207031 275.386719 260.144531 275.699219 C 260.082031 276.011719 259.988281 276.316406 259.867188 276.609375 C 259.746094 276.902344 259.597656 277.183594 259.417969 277.449219 C 259.242188 277.714844 259.042969 277.957031 258.816406 278.183594 C 258.589844 278.40625 258.347656 278.609375 258.082031 278.785156 C 257.816406 278.964844 257.539062 279.113281 257.242188 279.234375 C 256.949219 279.355469 256.644531 279.449219 256.332031 279.511719 C 256.023438 279.570312 255.707031 279.601562 255.386719 279.601562 C 255.070312 279.601562 254.753906 279.570312 254.441406 279.511719 C 254.128906 279.449219 253.828125 279.355469 253.53125 279.234375 C 253.238281 279.113281 252.957031 278.964844 252.695312 278.785156 C 252.429688 278.609375 252.183594 278.40625 251.960938 278.183594 C 251.734375 277.957031 251.53125 277.714844 251.355469 277.449219 C 251.179688 277.183594 251.03125 276.902344 250.90625 276.609375 C 250.785156 276.316406 250.695312 276.011719 250.632812 275.699219 C 250.570312 275.386719 250.539062 275.074219 250.539062 274.753906 L 250.539062 245.660156 Z M 260.238281 245.660156 " fill-opacity="1" fill-rule="nonzero"/><path fill="#3c323d" d="M 192.347656 226.261719 C 192.347656 226.582031 192.316406 226.898438 192.257812 227.207031 C 192.195312 227.519531 192.101562 227.824219 191.980469 228.117188 C 191.859375 228.414062 191.707031 228.691406 191.53125 228.957031 C 191.355469 229.222656 191.152344 229.464844 190.929688 229.691406 C 190.703125 229.917969 190.457031 230.117188 190.195312 230.292969 C 189.929688 230.472656 189.648438 230.621094 189.355469 230.742188 C 189.0625 230.863281 188.757812 230.957031 188.445312 231.019531 C 188.132812 231.082031 187.820312 231.113281 187.5 231.113281 C 187.179688 231.113281 186.867188 231.082031 186.554688 231.019531 C 186.242188 230.957031 185.9375 230.863281 185.644531 230.742188 C 185.351562 230.621094 185.070312 230.472656 184.804688 230.292969 C 184.542969 230.117188 184.296875 229.917969 184.070312 229.691406 C 183.847656 229.464844 183.644531 229.222656 183.46875 228.957031 C 183.292969 228.691406 183.140625 228.414062 183.019531 228.117188 C 182.898438 227.824219 182.804688 227.519531 182.742188 227.207031 C 182.683594 226.898438 182.652344 226.582031 182.652344 226.261719 C 182.652344 225.945312 182.683594 225.628906 182.742188 225.316406 C 182.804688 225.003906 182.898438 224.703125 183.019531 224.40625 C 183.140625 224.113281 183.292969 223.832031 183.46875 223.570312 C 183.644531 223.304688 183.847656 223.058594 184.070312 222.832031 C 184.296875 222.609375 184.542969 222.40625 184.804688 222.230469 C 185.070312 222.054688 185.351562 221.90625 185.644531 221.78125 C 185.9375 221.660156 186.242188 221.570312 186.554688 221.507812 C 186.867188 221.445312 187.179688 221.414062 187.5 221.414062 C 187.820312 221.414062 188.132812 221.445312 188.445312 221.507812 C 188.757812 221.570312 189.0625 221.660156 189.355469 221.78125 C 189.648438 221.90625 189.929688 222.054688 190.195312 222.230469 C 190.457031 222.40625 190.703125 222.609375 190.929688 222.832031 C 191.152344 223.058594 191.355469 223.304688 191.53125 223.570312 C 191.707031 223.832031 191.859375 224.113281 191.980469 224.40625 C 192.101562 224.703125 192.195312 225.003906 192.257812 225.316406 C 192.316406 225.628906 192.347656 225.945312 192.347656 226.261719 Z M 192.347656 226.261719 " fill-opacity="1" fill-rule="nonzero"/></svg>